ISO-10303-21;
HEADER;
FILE_DESCRIPTION(('Open CASCADE Model'),'2;1');
FILE_NAME('Open CASCADE Shape Model','2026-09-25T13:08:33',('Author'),(
    'Open CASCADE'),'Open CASCADE STEP processor 8.0','build123d',
  'Unknown');
FILE_SCHEMA(('AUTOMOTIVE_DESIGN { 1 0 10303 214 1 1 1 1 }'));
ENDSEC;
DATA;
#1 = APPLICATION_PROTOCOL_DEFINITION('international standard',
  'automotive_design',2000,#2);
#2 = APPLICATION_CONTEXT(
  'core data for automotive mechanical design processes');
#3 = SHAPE_DEFINITION_REPRESENTATION(#4,#10);
#4 = PRODUCT_DEFINITION_SHAPE('','',#5);
#5 = PRODUCT_DEFINITION('design','',#6,#9);
#6 = PRODUCT_DEFINITION_FORMATION('','',#7);
#7 = PRODUCT('COMPOUND','COMPOUND','',(#8));
#8 = PRODUCT_CONTEXT('',#2,'mechanical');
#9 = PRODUCT_DEFINITION_CONTEXT('part definition',#2,'design');
#10 = SHAPE_REPRESENTATION('',(#11,#15,#949),#1391);
#11 = AXIS2_PLACEMENT_3D('',#12,#13,#14);
#12 = CARTESIAN_POINT('',(0.,0.,0.));
#13 = DIRECTION('',(0.,0.,1.));
#14 = DIRECTION('',(1.,0.,-0.));
#15 = MANIFOLD_SOLID_BREP('',#16);
#16 = CLOSED_SHELL('',(#17,#147,#370,#479,#547,#627,#715,#773,#798,#880,
    #907,#942));
#17 = ADVANCED_FACE('',(#18),#33,.T.);
#18 = FACE_BOUND('',#19,.T.);
#19 = EDGE_LOOP('',(#20,#56,#88,#117));
#20 = ORIENTED_EDGE('',*,*,#21,.F.);
#21 = EDGE_CURVE('',#22,#24,#26,.T.);
#22 = VERTEX_POINT('',#23);
#23 = CARTESIAN_POINT('',(-48.,36.227199726173,-8.));
#24 = VERTEX_POINT('',#25);
#25 = CARTESIAN_POINT('',(-48.,-36.22719972617,-8.));
#26 = SURFACE_CURVE('',#27,(#32,#44),.PCURVE_S1.);
#27 = CIRCLE('',#28,37.1);
#28 = AXIS2_PLACEMENT_3D('',#29,#30,#31);
#29 = CARTESIAN_POINT('',(-48.,0.,1.931788062848E-14));
#30 = DIRECTION('',(1.,-0.,2.22044604925E-16));
#31 = DIRECTION('',(2.22044604925E-16,0.,-1.));
#32 = PCURVE('',#33,#38);
#33 = CONICAL_SURFACE('',#34,42.9,3.332099587825E-02);
#34 = AXIS2_PLACEMENT_3D('',#35,#36,#37);
#35 = CARTESIAN_POINT('',(-222.,0.,-1.931788062848E-14));
#36 = DIRECTION('',(-1.,-0.,-2.22044604925E-16));
#37 = DIRECTION('',(2.22044604925E-16,0.,-1.));
#38 = DEFINITIONAL_REPRESENTATION('',(#39),#43);
#39 = LINE('',#40,#41);
#40 = CARTESIAN_POINT('',(-0.,-174.));
#41 = VECTOR('',#42,1.);
#42 = DIRECTION('',(-1.,-0.));
#43 = ( GEOMETRIC_REPRESENTATION_CONTEXT(2) 
PARAMETRIC_REPRESENTATION_CONTEXT() REPRESENTATION_CONTEXT('2D SPACE',''
  ) );
#44 = PCURVE('',#45,#50);
#45 = PLANE('',#46);
#46 = AXIS2_PLACEMENT_3D('',#47,#48,#49);
#47 = CARTESIAN_POINT('',(-48.,0.,1.931788062848E-14));
#48 = DIRECTION('',(1.,0.,2.22044604925E-16));
#49 = DIRECTION('',(2.22044604925E-16,0.,-1.));
#50 = DEFINITIONAL_REPRESENTATION('',(#51),#55);
#51 = CIRCLE('',#52,37.1);
#52 = AXIS2_PLACEMENT_2D('',#53,#54);
#53 = CARTESIAN_POINT('',(0.,0.));
#54 = DIRECTION('',(1.,0.));
#55 = ( GEOMETRIC_REPRESENTATION_CONTEXT(2) 
PARAMETRIC_REPRESENTATION_CONTEXT() REPRESENTATION_CONTEXT('2D SPACE',''
  ) );
#56 = ORIENTED_EDGE('',*,*,#57,.F.);
#57 = EDGE_CURVE('',#58,#22,#60,.T.);
#58 = VERTEX_POINT('',#59);
#59 = CARTESIAN_POINT('',(-222.,42.147479165426,-8.));
#60 = SURFACE_CURVE('',#61,(#66,#76),.PCURVE_S1.);
#61 = HYPERBOLA('',#62,240.,8.);
#62 = AXIS2_PLACEMENT_3D('',#63,#64,#65);
#63 = CARTESIAN_POINT('',(1.065E+03,0.,-8.));
#64 = DIRECTION('',(0.,0.,1.));
#65 = DIRECTION('',(-1.,0.,0.));
#66 = PCURVE('',#33,#67);
#67 = DEFINITIONAL_REPRESENTATION('',(#68),#75);
#68 = B_SPLINE_CURVE_WITH_KNOTS('',5,(#69,#70,#71,#72,#73,#74),
  .UNSPECIFIED.,.F.,.F.,(6,6),(-2.36376813728,-2.215490072409),
  .PIECEWISE_BEZIER_KNOTS.);
#69 = CARTESIAN_POINT('',(-1.383218064833,1.362727910537E-12));
#70 = CARTESIAN_POINT('',(-1.377687880596,-37.4972798992));
#71 = CARTESIAN_POINT('',(-1.371956291013,-73.5797363444));
#72 = CARTESIAN_POINT('',(-1.366013868877,-108.3160692316));
#73 = CARTESIAN_POINT('',(-1.359850600838,-141.7698055733));
#74 = CARTESIAN_POINT('',(-1.353455859495,-173.9999999999));
#75 = ( GEOMETRIC_REPRESENTATION_CONTEXT(2) 
PARAMETRIC_REPRESENTATION_CONTEXT() REPRESENTATION_CONTEXT('2D SPACE',''
  ) );
#76 = PCURVE('',#77,#82);
#77 = PLANE('',#78);
#78 = AXIS2_PLACEMENT_3D('',#79,#80,#81);
#79 = CARTESIAN_POINT('',(-500.,-100.,-8.));
#80 = DIRECTION('',(0.,0.,1.));
#81 = DIRECTION('',(1.,0.,-0.));
#82 = DEFINITIONAL_REPRESENTATION('',(#83),#87);
#83 = HYPERBOLA('',#84,240.,8.);
#84 = AXIS2_PLACEMENT_2D('',#85,#86);
#85 = CARTESIAN_POINT('',(1.565E+03,100.));
#86 = DIRECTION('',(-1.,0.));
#87 = ( GEOMETRIC_REPRESENTATION_CONTEXT(2) 
PARAMETRIC_REPRESENTATION_CONTEXT() REPRESENTATION_CONTEXT('2D SPACE',''
  ) );
#88 = ORIENTED_EDGE('',*,*,#89,.T.);
#89 = EDGE_CURVE('',#58,#90,#92,.T.);
#90 = VERTEX_POINT('',#91);
#91 = CARTESIAN_POINT('',(-222.,-42.14747916542,-8.));
#92 = SURFACE_CURVE('',#93,(#98,#105),.PCURVE_S1.);
#93 = CIRCLE('',#94,42.9);
#94 = AXIS2_PLACEMENT_3D('',#95,#96,#97);
#95 = CARTESIAN_POINT('',(-222.,0.,-1.931788062848E-14));
#96 = DIRECTION('',(1.,-0.,2.22044604925E-16));
#97 = DIRECTION('',(2.22044604925E-16,0.,-1.));
#98 = PCURVE('',#33,#99);
#99 = DEFINITIONAL_REPRESENTATION('',(#100),#104);
#100 = LINE('',#101,#102);
#101 = CARTESIAN_POINT('',(-0.,-0.));
#102 = VECTOR('',#103,1.);
#103 = DIRECTION('',(-1.,-0.));
#104 = ( GEOMETRIC_REPRESENTATION_CONTEXT(2) 
PARAMETRIC_REPRESENTATION_CONTEXT() REPRESENTATION_CONTEXT('2D SPACE',''
  ) );
#105 = PCURVE('',#106,#111);
#106 = PLANE('',#107);
#107 = AXIS2_PLACEMENT_3D('',#108,#109,#110);
#108 = CARTESIAN_POINT('',(-222.,0.,-1.931788062848E-14));
#109 = DIRECTION('',(1.,0.,2.22044604925E-16));
#110 = DIRECTION('',(2.22044604925E-16,0.,-1.));
#111 = DEFINITIONAL_REPRESENTATION('',(#112),#116);
#112 = CIRCLE('',#113,42.9);
#113 = AXIS2_PLACEMENT_2D('',#114,#115);
#114 = CARTESIAN_POINT('',(0.,0.));
#115 = DIRECTION('',(1.,0.));
#116 = ( GEOMETRIC_REPRESENTATION_CONTEXT(2) 
PARAMETRIC_REPRESENTATION_CONTEXT() REPRESENTATION_CONTEXT('2D SPACE',''
  ) );
#117 = ORIENTED_EDGE('',*,*,#118,.F.);
#118 = EDGE_CURVE('',#24,#90,#119,.T.);
#119 = SURFACE_CURVE('',#120,(#125,#135),.PCURVE_S1.);
#120 = HYPERBOLA('',#121,240.,8.);
#121 = AXIS2_PLACEMENT_3D('',#122,#123,#124);
#122 = CARTESIAN_POINT('',(1.065E+03,0.,-8.));
#123 = DIRECTION('',(0.,0.,1.));
#124 = DIRECTION('',(-1.,0.,0.));
#125 = PCURVE('',#33,#126);
#126 = DEFINITIONAL_REPRESENTATION('',(#127),#134);
#127 = B_SPLINE_CURVE_WITH_KNOTS('',5,(#128,#129,#130,#131,#132,#133),
  .UNSPECIFIED.,.F.,.F.,(6,6),(2.215490072409,2.36376813728),
  .PIECEWISE_BEZIER_KNOTS.);
#128 = CARTESIAN_POINT('',(-4.929729447684,-173.9999999999));
#129 = CARTESIAN_POINT('',(-4.923334706342,-141.7698055733));
#130 = CARTESIAN_POINT('',(-4.917171438302,-108.3160692316));
#131 = CARTESIAN_POINT('',(-4.911229016167,-73.5797363444));
#132 = CARTESIAN_POINT('',(-4.905497426584,-37.4972798992));
#133 = CARTESIAN_POINT('',(-4.899967242346,1.362727910537E-12));
#134 = ( GEOMETRIC_REPRESENTATION_CONTEXT(2) 
PARAMETRIC_REPRESENTATION_CONTEXT() REPRESENTATION_CONTEXT('2D SPACE',''
  ) );
#135 = PCURVE('',#136,#141);
#136 = PLANE('',#137);
#137 = AXIS2_PLACEMENT_3D('',#138,#139,#140);
#138 = CARTESIAN_POINT('',(-500.,-100.,-8.));
#139 = DIRECTION('',(0.,0.,1.));
#140 = DIRECTION('',(1.,0.,-0.));
#141 = DEFINITIONAL_REPRESENTATION('',(#142),#146);
#142 = HYPERBOLA('',#143,240.,8.);
#143 = AXIS2_PLACEMENT_2D('',#144,#145);
#144 = CARTESIAN_POINT('',(1.565E+03,100.));
#145 = DIRECTION('',(-1.,0.));
#146 = ( GEOMETRIC_REPRESENTATION_CONTEXT(2) 
PARAMETRIC_REPRESENTATION_CONTEXT() REPRESENTATION_CONTEXT('2D SPACE',''
  ) );
#147 = ADVANCED_FACE('',(#148),#77,.F.);
#148 = FACE_BOUND('',#149,.F.);
#149 = EDGE_LOOP('',(#150,#151,#174,#206,#238,#264,#296,#322,#349));
#150 = ORIENTED_EDGE('',*,*,#57,.F.);
#151 = ORIENTED_EDGE('',*,*,#152,.T.);
#152 = EDGE_CURVE('',#58,#153,#155,.T.);
#153 = VERTEX_POINT('',#154);
#154 = CARTESIAN_POINT('',(-222.,35.714982850339,-8.));
#155 = SURFACE_CURVE('',#156,(#160,#167),.PCURVE_S1.);
#156 = LINE('',#157,#158);
#157 = CARTESIAN_POINT('',(-222.,42.147479165426,-8.));
#158 = VECTOR('',#159,1.);
#159 = DIRECTION('',(0.,-1.,5.523071455895E-16));
#160 = PCURVE('',#77,#161);
#161 = DEFINITIONAL_REPRESENTATION('',(#162),#166);
#162 = LINE('',#163,#164);
#163 = CARTESIAN_POINT('',(278.,142.14747916542));
#164 = VECTOR('',#165,1.);
#165 = DIRECTION('',(0.,-1.));
#166 = ( GEOMETRIC_REPRESENTATION_CONTEXT(2) 
PARAMETRIC_REPRESENTATION_CONTEXT() REPRESENTATION_CONTEXT('2D SPACE',''
  ) );
#167 = PCURVE('',#106,#168);
#168 = DEFINITIONAL_REPRESENTATION('',(#169),#173);
#169 = LINE('',#170,#171);
#170 = CARTESIAN_POINT('',(8.,42.147479165426));
#171 = VECTOR('',#172,1.);
#172 = DIRECTION('',(-5.523071455895E-16,-1.));
#173 = ( GEOMETRIC_REPRESENTATION_CONTEXT(2) 
PARAMETRIC_REPRESENTATION_CONTEXT() REPRESENTATION_CONTEXT('2D SPACE',''
  ) );
#174 = ORIENTED_EDGE('',*,*,#175,.T.);
#175 = EDGE_CURVE('',#153,#176,#178,.T.);
#176 = VERTEX_POINT('',#177);
#177 = CARTESIAN_POINT('',(-181.,34.313084643876,-7.999999999999));
#178 = SURFACE_CURVE('',#179,(#184,#191),.PCURVE_S1.);
#179 = HYPERBOLA('',#180,240.,8.);
#180 = AXIS2_PLACEMENT_3D('',#181,#182,#183);
#181 = CARTESIAN_POINT('',(875.99999999999,0.,-8.));
#182 = DIRECTION('',(0.,0.,1.));
#183 = DIRECTION('',(-1.,0.,0.));
#184 = PCURVE('',#77,#185);
#185 = DEFINITIONAL_REPRESENTATION('',(#186),#190);
#186 = HYPERBOLA('',#187,240.,8.);
#187 = AXIS2_PLACEMENT_2D('',#188,#189);
#188 = CARTESIAN_POINT('',(1.376E+03,100.));
#189 = DIRECTION('',(-1.,0.));
#190 = ( GEOMETRIC_REPRESENTATION_CONTEXT(2) 
PARAMETRIC_REPRESENTATION_CONTEXT() REPRESENTATION_CONTEXT('2D SPACE',''
  ) );
#191 = PCURVE('',#192,#197);
#192 = CONICAL_SURFACE('',#193,36.633333333333,3.332099587825E-02);
#193 = AXIS2_PLACEMENT_3D('',#194,#195,#196);
#194 = CARTESIAN_POINT('',(-223.,0.,-1.95399252334E-14));
#195 = DIRECTION('',(-1.,-0.,-2.22044604925E-16));
#196 = DIRECTION('',(2.22044604925E-16,0.,-1.));
#197 = DEFINITIONAL_REPRESENTATION('',(#198),#205);
#198 = B_SPLINE_CURVE_WITH_KNOTS('',5,(#199,#200,#201,#202,#203,#204),
  .UNSPECIFIED.,.F.,.F.,(6,6),(-2.201589797694,-2.023910635099),
  .PIECEWISE_BEZIER_KNOTS.);
#199 = CARTESIAN_POINT('',(-1.350438065889,-0.999999999998));
#200 = CARTESIAN_POINT('',(-1.342670670803,-39.07484946949));
#201 = CARTESIAN_POINT('',(-1.334566592224,-75.4165132355));
#202 = CARTESIAN_POINT('',(-1.326107350915,-110.1251530932));
#203 = CARTESIAN_POINT('',(-1.317273191758,-143.2918404087));
#204 = CARTESIAN_POINT('',(-1.30804310539,-174.9999999999));
#205 = ( GEOMETRIC_REPRESENTATION_CONTEXT(2) 
PARAMETRIC_REPRESENTATION_CONTEXT() REPRESENTATION_CONTEXT('2D SPACE',''
  ) );
#206 = ORIENTED_EDGE('',*,*,#207,.T.);
#207 = EDGE_CURVE('',#176,#208,#210,.T.);
#208 = VERTEX_POINT('',#209);
#209 = CARTESIAN_POINT('',(-94.,31.328013732831,-7.999999999999));
#210 = SURFACE_CURVE('',#211,(#216,#223),.PCURVE_S1.);
#211 = HYPERBOLA('',#212,240.,8.);
#212 = AXIS2_PLACEMENT_3D('',#213,#214,#215);
#213 = CARTESIAN_POINT('',(875.99999999999,0.,-8.));
#214 = DIRECTION('',(0.,0.,1.));
#215 = DIRECTION('',(-1.,0.,0.));
#216 = PCURVE('',#77,#217);
#217 = DEFINITIONAL_REPRESENTATION('',(#218),#222);
#218 = HYPERBOLA('',#219,240.,8.);
#219 = AXIS2_PLACEMENT_2D('',#220,#221);
#220 = CARTESIAN_POINT('',(1.376E+03,100.));
#221 = DIRECTION('',(-1.,0.));
#222 = ( GEOMETRIC_REPRESENTATION_CONTEXT(2) 
PARAMETRIC_REPRESENTATION_CONTEXT() REPRESENTATION_CONTEXT('2D SPACE',''
  ) );
#223 = PCURVE('',#224,#229);
#224 = CONICAL_SURFACE('',#225,36.633333333333,3.332099587825E-02);
#225 = AXIS2_PLACEMENT_3D('',#226,#227,#228);
#226 = CARTESIAN_POINT('',(-223.,0.,-1.95399252334E-14));
#227 = DIRECTION('',(-1.,-0.,-2.22044604925E-16));
#228 = DIRECTION('',(2.22044604925E-16,0.,-1.));
#229 = DEFINITIONAL_REPRESENTATION('',(#230),#237);
#230 = B_SPLINE_CURVE_WITH_KNOTS('',5,(#231,#232,#233,#234,#235,#236),
  .UNSPECIFIED.,.F.,.F.,(6,6),(-2.201589797694,-2.023910635099),
  .PIECEWISE_BEZIER_KNOTS.);
#231 = CARTESIAN_POINT('',(-1.350438065889,-0.999999999998));
#232 = CARTESIAN_POINT('',(-1.342670670803,-39.07484946949));
#233 = CARTESIAN_POINT('',(-1.334566592224,-75.4165132355));
#234 = CARTESIAN_POINT('',(-1.326107350915,-110.1251530932));
#235 = CARTESIAN_POINT('',(-1.317273191758,-143.2918404087));
#236 = CARTESIAN_POINT('',(-1.30804310539,-174.9999999999));
#237 = ( GEOMETRIC_REPRESENTATION_CONTEXT(2) 
PARAMETRIC_REPRESENTATION_CONTEXT() REPRESENTATION_CONTEXT('2D SPACE',''
  ) );
#238 = ORIENTED_EDGE('',*,*,#239,.T.);
#239 = EDGE_CURVE('',#208,#240,#242,.T.);
#240 = VERTEX_POINT('',#241);
#241 = CARTESIAN_POINT('',(-94.,32.97682688057,-8.));
#242 = SURFACE_CURVE('',#243,(#247,#253),.PCURVE_S1.);
#243 = LINE('',#244,#245);
#244 = CARTESIAN_POINT('',(-94.,-50.,-8.));
#245 = VECTOR('',#246,1.);
#246 = DIRECTION('',(0.,1.,0.));
#247 = PCURVE('',#77,#248);
#248 = DEFINITIONAL_REPRESENTATION('',(#249),#252);
#249 = B_SPLINE_CURVE_WITH_KNOTS('',1,(#250,#251),.UNSPECIFIED.,.F.,.F.,
  (2,2),(79.742898312034,83.933333333333),.PIECEWISE_BEZIER_KNOTS.);
#250 = CARTESIAN_POINT('',(406.,129.74289831203));
#251 = CARTESIAN_POINT('',(406.,133.93333333333));
#252 = ( GEOMETRIC_REPRESENTATION_CONTEXT(2) 
PARAMETRIC_REPRESENTATION_CONTEXT() REPRESENTATION_CONTEXT('2D SPACE',''
  ) );
#253 = PCURVE('',#254,#259);
#254 = PLANE('',#255);
#255 = AXIS2_PLACEMENT_3D('',#256,#257,#258);
#256 = CARTESIAN_POINT('',(-94.,0.,-4.218847493576E-15));
#257 = DIRECTION('',(1.,0.,2.22044604925E-16));
#258 = DIRECTION('',(2.22044604925E-16,0.,-1.));
#259 = DEFINITIONAL_REPRESENTATION('',(#260),#263);
#260 = B_SPLINE_CURVE_WITH_KNOTS('',1,(#261,#262),.UNSPECIFIED.,.F.,.F.,
  (2,2),(79.742898312034,83.933333333333),.PIECEWISE_BEZIER_KNOTS.);
#261 = CARTESIAN_POINT('',(8.,29.742898312034));
#262 = CARTESIAN_POINT('',(8.,33.933333333333));
#263 = ( GEOMETRIC_REPRESENTATION_CONTEXT(2) 
PARAMETRIC_REPRESENTATION_CONTEXT() REPRESENTATION_CONTEXT('2D SPACE',''
  ) );
#264 = ORIENTED_EDGE('',*,*,#265,.T.);
#265 = EDGE_CURVE('',#240,#266,#268,.T.);
#266 = VERTEX_POINT('',#267);
#267 = CARTESIAN_POINT('',(-56.,31.671929387253,-8.));
#268 = SURFACE_CURVE('',#269,(#274,#281),.PCURVE_S1.);
#269 = HYPERBOLA('',#270,240.,8.);
#270 = AXIS2_PLACEMENT_3D('',#271,#272,#273);
#271 = CARTESIAN_POINT('',(924.,0.,-8.));
#272 = DIRECTION('',(0.,0.,1.));
#273 = DIRECTION('',(-1.,0.,0.));
#274 = PCURVE('',#77,#275);
#275 = DEFINITIONAL_REPRESENTATION('',(#276),#280);
#276 = ( BOUNDED_CURVE() B_SPLINE_CURVE(2,(#277,#278,#279),
.UNSPECIFIED.,.F.,.F.) B_SPLINE_CURVE_WITH_KNOTS((3,3),(-2.123909285581,
-2.084718159158),.PIECEWISE_BEZIER_KNOTS.) CURVE() 
GEOMETRIC_REPRESENTATION_ITEM() RATIONAL_B_SPLINE_CURVE((1.,
1.000191999192,1.)) REPRESENTATION_ITEM('') );
#277 = CARTESIAN_POINT('',(405.99999999999,132.97682688057));
#278 = CARTESIAN_POINT('',(425.38350393424,132.31196919879));
#279 = CARTESIAN_POINT('',(443.99999999999,131.67192938725));
#280 = ( GEOMETRIC_REPRESENTATION_CONTEXT(2) 
PARAMETRIC_REPRESENTATION_CONTEXT() REPRESENTATION_CONTEXT('2D SPACE',''
  ) );
#281 = PCURVE('',#282,#287);
#282 = CONICAL_SURFACE('',#283,33.933333333333,3.332099587825E-02);
#283 = AXIS2_PLACEMENT_3D('',#284,#285,#286);
#284 = CARTESIAN_POINT('',(-94.,0.,-4.218847493576E-15));
#285 = DIRECTION('',(-1.,-0.,-2.22044604925E-16));
#286 = DIRECTION('',(2.22044604925E-16,0.,-1.));
#287 = DEFINITIONAL_REPRESENTATION('',(#288),#295);
#288 = B_SPLINE_CURVE_WITH_KNOTS('',5,(#289,#290,#291,#292,#293,#294),
  .UNSPECIFIED.,.F.,.F.,(6,6),(-2.123909285581,-2.084718159158),
  .PIECEWISE_BEZIER_KNOTS.);
#289 = CARTESIAN_POINT('',(-7.615984814939,1.589849228959E-12));
#290 = CARTESIAN_POINT('',(-7.61413690328,-7.754393947766));
#291 = CARTESIAN_POINT('',(-7.61227139654,-15.43060832617));
#292 = CARTESIAN_POINT('',(-7.610388084485,-23.029635661));
#293 = CARTESIAN_POINT('',(-7.608486753883,-30.552448468));
#294 = CARTESIAN_POINT('',(-7.606567188507,-37.99999999999));
#295 = ( GEOMETRIC_REPRESENTATION_CONTEXT(2) 
PARAMETRIC_REPRESENTATION_CONTEXT() REPRESENTATION_CONTEXT('2D SPACE',''
  ) );
#296 = ORIENTED_EDGE('',*,*,#297,.F.);
#297 = EDGE_CURVE('',#298,#266,#300,.T.);
#298 = VERTEX_POINT('',#299);
#299 = CARTESIAN_POINT('',(-56.,30.018956973516,-7.999999999999));
#300 = SURFACE_CURVE('',#301,(#305,#311),.PCURVE_S1.);
#301 = LINE('',#302,#303);
#302 = CARTESIAN_POINT('',(-56.,-50.,-8.));
#303 = VECTOR('',#304,1.);
#304 = DIRECTION('',(0.,1.,0.));
#305 = PCURVE('',#77,#306);
#306 = DEFINITIONAL_REPRESENTATION('',(#307),#310);
#307 = B_SPLINE_CURVE_WITH_KNOTS('',1,(#308,#309),.UNSPECIFIED.,.F.,.F.,
  (2,2),(79.742898312034,82.666666666667),.PIECEWISE_BEZIER_KNOTS.);
#308 = CARTESIAN_POINT('',(444.,129.74289831203));
#309 = CARTESIAN_POINT('',(444.,132.66666666666));
#310 = ( GEOMETRIC_REPRESENTATION_CONTEXT(2) 
PARAMETRIC_REPRESENTATION_CONTEXT() REPRESENTATION_CONTEXT('2D SPACE',''
  ) );
#311 = PCURVE('',#312,#317);
#312 = PLANE('',#313);
#313 = AXIS2_PLACEMENT_3D('',#314,#315,#316);
#314 = CARTESIAN_POINT('',(-56.,0.,4.218847493576E-15));
#315 = DIRECTION('',(1.,0.,2.22044604925E-16));
#316 = DIRECTION('',(2.22044604925E-16,0.,-1.));
#317 = DEFINITIONAL_REPRESENTATION('',(#318),#321);
#318 = B_SPLINE_CURVE_WITH_KNOTS('',1,(#319,#320),.UNSPECIFIED.,.F.,.F.,
  (2,2),(79.742898312034,82.666666666667),.PIECEWISE_BEZIER_KNOTS.);
#319 = CARTESIAN_POINT('',(8.,29.742898312034));
#320 = CARTESIAN_POINT('',(8.,32.666666666667));
#321 = ( GEOMETRIC_REPRESENTATION_CONTEXT(2) 
PARAMETRIC_REPRESENTATION_CONTEXT() REPRESENTATION_CONTEXT('2D SPACE',''
  ) );
#322 = ORIENTED_EDGE('',*,*,#323,.T.);
#323 = EDGE_CURVE('',#298,#324,#326,.T.);
#324 = VERTEX_POINT('',#325);
#325 = CARTESIAN_POINT('',(-48.,29.742898312034,-8.));
#326 = SURFACE_CURVE('',#327,(#332,#339),.PCURVE_S1.);
#327 = HYPERBOLA('',#328,240.,8.);
#328 = AXIS2_PLACEMENT_3D('',#329,#330,#331);
#329 = CARTESIAN_POINT('',(875.99999999999,0.,-8.));
#330 = DIRECTION('',(0.,0.,1.));
#331 = DIRECTION('',(-1.,0.,0.));
#332 = PCURVE('',#77,#333);
#333 = DEFINITIONAL_REPRESENTATION('',(#334),#338);
#334 = HYPERBOLA('',#335,240.,8.);
#335 = AXIS2_PLACEMENT_2D('',#336,#337);
#336 = CARTESIAN_POINT('',(1.376E+03,100.));
#337 = DIRECTION('',(-1.,0.));
#338 = ( GEOMETRIC_REPRESENTATION_CONTEXT(2) 
PARAMETRIC_REPRESENTATION_CONTEXT() REPRESENTATION_CONTEXT('2D SPACE',''
  ) );
#339 = PCURVE('',#224,#340);
#340 = DEFINITIONAL_REPRESENTATION('',(#341),#348);
#341 = B_SPLINE_CURVE_WITH_KNOTS('',5,(#342,#343,#344,#345,#346,#347),
  .UNSPECIFIED.,.F.,.F.,(6,6),(-2.201589797694,-2.023910635099),
  .PIECEWISE_BEZIER_KNOTS.);
#342 = CARTESIAN_POINT('',(-1.350438065889,-0.999999999998));
#343 = CARTESIAN_POINT('',(-1.342670670803,-39.07484946949));
#344 = CARTESIAN_POINT('',(-1.334566592224,-75.4165132355));
#345 = CARTESIAN_POINT('',(-1.326107350915,-110.1251530932));
#346 = CARTESIAN_POINT('',(-1.317273191758,-143.2918404087));
#347 = CARTESIAN_POINT('',(-1.30804310539,-174.9999999999));
#348 = ( GEOMETRIC_REPRESENTATION_CONTEXT(2) 
PARAMETRIC_REPRESENTATION_CONTEXT() REPRESENTATION_CONTEXT('2D SPACE',''
  ) );
#349 = ORIENTED_EDGE('',*,*,#350,.T.);
#350 = EDGE_CURVE('',#324,#22,#351,.T.);
#351 = SURFACE_CURVE('',#352,(#356,#363),.PCURVE_S1.);
#352 = LINE('',#353,#354);
#353 = CARTESIAN_POINT('',(-48.,29.742898312034,-8.));
#354 = VECTOR('',#355,1.);
#355 = DIRECTION('',(0.,1.,0.));
#356 = PCURVE('',#77,#357);
#357 = DEFINITIONAL_REPRESENTATION('',(#358),#362);
#358 = LINE('',#359,#360);
#359 = CARTESIAN_POINT('',(452.,129.74289831203));
#360 = VECTOR('',#361,1.);
#361 = DIRECTION('',(0.,1.));
#362 = ( GEOMETRIC_REPRESENTATION_CONTEXT(2) 
PARAMETRIC_REPRESENTATION_CONTEXT() REPRESENTATION_CONTEXT('2D SPACE',''
  ) );
#363 = PCURVE('',#45,#364);
#364 = DEFINITIONAL_REPRESENTATION('',(#365),#369);
#365 = LINE('',#366,#367);
#366 = CARTESIAN_POINT('',(8.,29.742898312034));
#367 = VECTOR('',#368,1.);
#368 = DIRECTION('',(0.,1.));
#369 = ( GEOMETRIC_REPRESENTATION_CONTEXT(2) 
PARAMETRIC_REPRESENTATION_CONTEXT() REPRESENTATION_CONTEXT('2D SPACE',''
  ) );
#370 = ADVANCED_FACE('',(#371),#192,.F.);
#371 = FACE_BOUND('',#372,.F.);
#372 = EDGE_LOOP('',(#373,#397,#398,#422,#449));
#373 = ORIENTED_EDGE('',*,*,#374,.F.);
#374 = EDGE_CURVE('',#176,#375,#377,.T.);
#375 = VERTEX_POINT('',#376);
#376 = CARTESIAN_POINT('',(-181.,-34.31308464387,-7.999999999999));
#377 = SURFACE_CURVE('',#378,(#383,#390),.PCURVE_S1.);
#378 = CIRCLE('',#379,35.233333333333);
#379 = AXIS2_PLACEMENT_3D('',#380,#381,#382);
#380 = CARTESIAN_POINT('',(-181.,0.,4.218847493576E-15));
#381 = DIRECTION('',(1.,0.,2.22044604925E-16));
#382 = DIRECTION('',(2.22044604925E-16,0.,-1.));
#383 = PCURVE('',#192,#384);
#384 = DEFINITIONAL_REPRESENTATION('',(#385),#389);
#385 = LINE('',#386,#387);
#386 = CARTESIAN_POINT('',(-0.,-42.));
#387 = VECTOR('',#388,1.);
#388 = DIRECTION('',(-1.,-0.));
#389 = ( GEOMETRIC_REPRESENTATION_CONTEXT(2) 
PARAMETRIC_REPRESENTATION_CONTEXT() REPRESENTATION_CONTEXT('2D SPACE',''
  ) );
#390 = PCURVE('',#224,#391);
#391 = DEFINITIONAL_REPRESENTATION('',(#392),#396);
#392 = LINE('',#393,#394);
#393 = CARTESIAN_POINT('',(-0.,-42.));
#394 = VECTOR('',#395,1.);
#395 = DIRECTION('',(-1.,-0.));
#396 = ( GEOMETRIC_REPRESENTATION_CONTEXT(2) 
PARAMETRIC_REPRESENTATION_CONTEXT() REPRESENTATION_CONTEXT('2D SPACE',''
  ) );
#397 = ORIENTED_EDGE('',*,*,#175,.F.);
#398 = ORIENTED_EDGE('',*,*,#399,.T.);
#399 = EDGE_CURVE('',#153,#400,#402,.T.);
#400 = VERTEX_POINT('',#401);
#401 = CARTESIAN_POINT('',(-222.,-35.71498285033,-8.));
#402 = SURFACE_CURVE('',#403,(#408,#415),.PCURVE_S1.);
#403 = CIRCLE('',#404,36.6);
#404 = AXIS2_PLACEMENT_3D('',#405,#406,#407);
#405 = CARTESIAN_POINT('',(-222.,0.,-1.931788062848E-14));
#406 = DIRECTION('',(1.,0.,2.22044604925E-16));
#407 = DIRECTION('',(2.22044604925E-16,0.,-1.));
#408 = PCURVE('',#192,#409);
#409 = DEFINITIONAL_REPRESENTATION('',(#410),#414);
#410 = LINE('',#411,#412);
#411 = CARTESIAN_POINT('',(-0.,-1.));
#412 = VECTOR('',#413,1.);
#413 = DIRECTION('',(-1.,-0.));
#414 = ( GEOMETRIC_REPRESENTATION_CONTEXT(2) 
PARAMETRIC_REPRESENTATION_CONTEXT() REPRESENTATION_CONTEXT('2D SPACE',''
  ) );
#415 = PCURVE('',#106,#416);
#416 = DEFINITIONAL_REPRESENTATION('',(#417),#421);
#417 = CIRCLE('',#418,36.6);
#418 = AXIS2_PLACEMENT_2D('',#419,#420);
#419 = CARTESIAN_POINT('',(0.,0.));
#420 = DIRECTION('',(1.,0.));
#421 = ( GEOMETRIC_REPRESENTATION_CONTEXT(2) 
PARAMETRIC_REPRESENTATION_CONTEXT() REPRESENTATION_CONTEXT('2D SPACE',''
  ) );
#422 = ORIENTED_EDGE('',*,*,#423,.F.);
#423 = EDGE_CURVE('',#424,#400,#426,.T.);
#424 = VERTEX_POINT('',#425);
#425 = CARTESIAN_POINT('',(-219.,-35.61249780624,-8.000000000001));
#426 = SURFACE_CURVE('',#427,(#432,#442),.PCURVE_S1.);
#427 = HYPERBOLA('',#428,240.,8.);
#428 = AXIS2_PLACEMENT_3D('',#429,#430,#431);
#429 = CARTESIAN_POINT('',(875.99999999999,0.,-8.));
#430 = DIRECTION('',(0.,0.,1.));
#431 = DIRECTION('',(-1.,0.,0.));
#432 = PCURVE('',#192,#433);
#433 = DEFINITIONAL_REPRESENTATION('',(#434),#441);
#434 = B_SPLINE_CURVE_WITH_KNOTS('',5,(#435,#436,#437,#438,#439,#440),
  .UNSPECIFIED.,.F.,.F.,(6,6),(2.023910635099,2.201589797694),
  .PIECEWISE_BEZIER_KNOTS.);
#435 = CARTESIAN_POINT('',(-4.97514220179,-174.9999999999));
#436 = CARTESIAN_POINT('',(-4.965912115421,-143.2918404087));
#437 = CARTESIAN_POINT('',(-4.957077956265,-110.1251530932));
#438 = CARTESIAN_POINT('',(-4.948618714955,-75.4165132355));
#439 = CARTESIAN_POINT('',(-4.940514636377,-39.07484946949));
#440 = CARTESIAN_POINT('',(-4.932747241291,-0.999999999998));
#441 = ( GEOMETRIC_REPRESENTATION_CONTEXT(2) 
PARAMETRIC_REPRESENTATION_CONTEXT() REPRESENTATION_CONTEXT('2D SPACE',''
  ) );
#442 = PCURVE('',#136,#443);
#443 = DEFINITIONAL_REPRESENTATION('',(#444),#448);
#444 = HYPERBOLA('',#445,240.,8.);
#445 = AXIS2_PLACEMENT_2D('',#446,#447);
#446 = CARTESIAN_POINT('',(1.376E+03,100.));
#447 = DIRECTION('',(-1.,0.));
#448 = ( GEOMETRIC_REPRESENTATION_CONTEXT(2) 
PARAMETRIC_REPRESENTATION_CONTEXT() REPRESENTATION_CONTEXT('2D SPACE',''
  ) );
#449 = ORIENTED_EDGE('',*,*,#450,.F.);
#450 = EDGE_CURVE('',#375,#424,#451,.T.);
#451 = SURFACE_CURVE('',#452,(#457,#467),.PCURVE_S1.);
#452 = HYPERBOLA('',#453,240.,8.);
#453 = AXIS2_PLACEMENT_3D('',#454,#455,#456);
#454 = CARTESIAN_POINT('',(875.99999999999,0.,-8.));
#455 = DIRECTION('',(0.,0.,1.));
#456 = DIRECTION('',(-1.,0.,0.));
#457 = PCURVE('',#192,#458);
#458 = DEFINITIONAL_REPRESENTATION('',(#459),#466);
#459 = B_SPLINE_CURVE_WITH_KNOTS('',5,(#460,#461,#462,#463,#464,#465),
  .UNSPECIFIED.,.F.,.F.,(6,6),(2.023910635099,2.201589797694),
  .PIECEWISE_BEZIER_KNOTS.);
#460 = CARTESIAN_POINT('',(-4.97514220179,-174.9999999999));
#461 = CARTESIAN_POINT('',(-4.965912115421,-143.2918404087));
#462 = CARTESIAN_POINT('',(-4.957077956265,-110.1251530932));
#463 = CARTESIAN_POINT('',(-4.948618714955,-75.4165132355));
#464 = CARTESIAN_POINT('',(-4.940514636377,-39.07484946949));
#465 = CARTESIAN_POINT('',(-4.932747241291,-0.999999999998));
#466 = ( GEOMETRIC_REPRESENTATION_CONTEXT(2) 
PARAMETRIC_REPRESENTATION_CONTEXT() REPRESENTATION_CONTEXT('2D SPACE',''
  ) );
#467 = PCURVE('',#468,#473);
#468 = PLANE('',#469);
#469 = AXIS2_PLACEMENT_3D('',#470,#471,#472);
#470 = CARTESIAN_POINT('',(-500.,-100.,-8.));
#471 = DIRECTION('',(0.,0.,1.));
#472 = DIRECTION('',(1.,0.,-0.));
#473 = DEFINITIONAL_REPRESENTATION('',(#474),#478);
#474 = HYPERBOLA('',#475,240.,8.);
#475 = AXIS2_PLACEMENT_2D('',#476,#477);
#476 = CARTESIAN_POINT('',(1.376E+03,100.));
#477 = DIRECTION('',(-1.,0.));
#478 = ( GEOMETRIC_REPRESENTATION_CONTEXT(2) 
PARAMETRIC_REPRESENTATION_CONTEXT() REPRESENTATION_CONTEXT('2D SPACE',''
  ) );
#479 = ADVANCED_FACE('',(#480),#468,.F.);
#480 = FACE_BOUND('',#481,.F.);
#481 = EDGE_LOOP('',(#482,#483,#504,#528));
#482 = ORIENTED_EDGE('',*,*,#450,.T.);
#483 = ORIENTED_EDGE('',*,*,#484,.F.);
#484 = EDGE_CURVE('',#485,#424,#487,.T.);
#485 = VERTEX_POINT('',#486);
#486 = CARTESIAN_POINT('',(-219.,-37.25063757843,-8.));
#487 = SURFACE_CURVE('',#488,(#492,#498),.PCURVE_S1.);
#488 = LINE('',#489,#490);
#489 = CARTESIAN_POINT('',(-219.,-50.,-8.));
#490 = VECTOR('',#491,1.);
#491 = DIRECTION('',(0.,1.,0.));
#492 = PCURVE('',#468,#493);
#493 = DEFINITIONAL_REPRESENTATION('',(#494),#497);
#494 = B_SPLINE_CURVE_WITH_KNOTS('',1,(#495,#496),.UNSPECIFIED.,.F.,.F.,
  (2,2),(11.9,20.257101687966),.PIECEWISE_BEZIER_KNOTS.);
#495 = CARTESIAN_POINT('',(281.,61.9));
#496 = CARTESIAN_POINT('',(281.,70.257101687966));
#497 = ( GEOMETRIC_REPRESENTATION_CONTEXT(2) 
PARAMETRIC_REPRESENTATION_CONTEXT() REPRESENTATION_CONTEXT('2D SPACE',''
  ) );
#498 = PCURVE('',#136,#499);
#499 = DEFINITIONAL_REPRESENTATION('',(#500),#503);
#500 = B_SPLINE_CURVE_WITH_KNOTS('',1,(#501,#502),.UNSPECIFIED.,.F.,.F.,
  (2,2),(11.9,20.257101687966),.PIECEWISE_BEZIER_KNOTS.);
#501 = CARTESIAN_POINT('',(281.,61.9));
#502 = CARTESIAN_POINT('',(281.,70.257101687966));
#503 = ( GEOMETRIC_REPRESENTATION_CONTEXT(2) 
PARAMETRIC_REPRESENTATION_CONTEXT() REPRESENTATION_CONTEXT('2D SPACE',''
  ) );
#504 = ORIENTED_EDGE('',*,*,#505,.F.);
#505 = EDGE_CURVE('',#506,#485,#508,.T.);
#506 = VERTEX_POINT('',#507);
#507 = CARTESIAN_POINT('',(-181.,-35.95406019414,-8.));
#508 = SURFACE_CURVE('',#509,(#514,#521),.PCURVE_S1.);
#509 = HYPERBOLA('',#510,240.,8.);
#510 = AXIS2_PLACEMENT_3D('',#511,#512,#513);
#511 = CARTESIAN_POINT('',(924.,0.,-8.));
#512 = DIRECTION('',(0.,0.,1.));
#513 = DIRECTION('',(-1.,0.,0.));
#514 = PCURVE('',#468,#515);
#515 = DEFINITIONAL_REPRESENTATION('',(#516),#520);
#516 = ( BOUNDED_CURVE() B_SPLINE_CURVE(2,(#517,#518,#519),
.UNSPECIFIED.,.F.,.F.) B_SPLINE_CURVE_WITH_KNOTS((3,3),(2.208101232697,
2.242710844915),.PIECEWISE_BEZIER_KNOTS.) CURVE() 
GEOMETRIC_REPRESENTATION_ITEM() RATIONAL_B_SPLINE_CURVE((1.,
1.000149731894,1.)) REPRESENTATION_ITEM('') );
#517 = CARTESIAN_POINT('',(318.99999999999,64.045939805852));
#518 = CARTESIAN_POINT('',(300.33652171309,63.40860973039));
#519 = CARTESIAN_POINT('',(280.99999999999,62.749362421564));
#520 = ( GEOMETRIC_REPRESENTATION_CONTEXT(2) 
PARAMETRIC_REPRESENTATION_CONTEXT() REPRESENTATION_CONTEXT('2D SPACE',''
  ) );
#521 = PCURVE('',#136,#522);
#522 = DEFINITIONAL_REPRESENTATION('',(#523),#527);
#523 = ( BOUNDED_CURVE() B_SPLINE_CURVE(2,(#524,#525,#526),
.UNSPECIFIED.,.F.,.F.) B_SPLINE_CURVE_WITH_KNOTS((3,3),(2.208101232697,
2.242710844915),.PIECEWISE_BEZIER_KNOTS.) CURVE() 
GEOMETRIC_REPRESENTATION_ITEM() RATIONAL_B_SPLINE_CURVE((1.,
1.000149731894,1.)) REPRESENTATION_ITEM('') );
#524 = CARTESIAN_POINT('',(318.99999999999,64.045939805852));
#525 = CARTESIAN_POINT('',(300.33652171309,63.40860973039));
#526 = CARTESIAN_POINT('',(280.99999999999,62.749362421564));
#527 = ( GEOMETRIC_REPRESENTATION_CONTEXT(2) 
PARAMETRIC_REPRESENTATION_CONTEXT() REPRESENTATION_CONTEXT('2D SPACE',''
  ) );
#528 = ORIENTED_EDGE('',*,*,#529,.T.);
#529 = EDGE_CURVE('',#506,#375,#530,.T.);
#530 = SURFACE_CURVE('',#531,(#535,#541),.PCURVE_S1.);
#531 = LINE('',#532,#533);
#532 = CARTESIAN_POINT('',(-181.,-50.,-8.));
#533 = VECTOR('',#534,1.);
#534 = DIRECTION('',(0.,1.,0.));
#535 = PCURVE('',#468,#536);
#536 = DEFINITIONAL_REPRESENTATION('',(#537),#540);
#537 = B_SPLINE_CURVE_WITH_KNOTS('',1,(#538,#539),.UNSPECIFIED.,.F.,.F.,
  (2,2),(13.166666666667,20.257101687966),.PIECEWISE_BEZIER_KNOTS.);
#538 = CARTESIAN_POINT('',(319.,63.166666666667));
#539 = CARTESIAN_POINT('',(319.,70.257101687966));
#540 = ( GEOMETRIC_REPRESENTATION_CONTEXT(2) 
PARAMETRIC_REPRESENTATION_CONTEXT() REPRESENTATION_CONTEXT('2D SPACE',''
  ) );
#541 = PCURVE('',#136,#542);
#542 = DEFINITIONAL_REPRESENTATION('',(#543),#546);
#543 = B_SPLINE_CURVE_WITH_KNOTS('',1,(#544,#545),.UNSPECIFIED.,.F.,.F.,
  (2,2),(13.166666666667,20.257101687966),.PIECEWISE_BEZIER_KNOTS.);
#544 = CARTESIAN_POINT('',(319.,63.166666666667));
#545 = CARTESIAN_POINT('',(319.,70.257101687966));
#546 = ( GEOMETRIC_REPRESENTATION_CONTEXT(2) 
PARAMETRIC_REPRESENTATION_CONTEXT() REPRESENTATION_CONTEXT('2D SPACE',''
  ) );
#547 = ADVANCED_FACE('',(#548),#254,.F.);
#548 = FACE_BOUND('',#549,.F.);
#549 = EDGE_LOOP('',(#550,#573,#599,#600));
#550 = ORIENTED_EDGE('',*,*,#551,.F.);
#551 = EDGE_CURVE('',#552,#554,#556,.T.);
#552 = VERTEX_POINT('',#553);
#553 = CARTESIAN_POINT('',(-94.,-32.97682688057,-8.));
#554 = VERTEX_POINT('',#555);
#555 = CARTESIAN_POINT('',(-94.,-31.32801373283,-7.999999999999));
#556 = SURFACE_CURVE('',#557,(#561,#567),.PCURVE_S1.);
#557 = LINE('',#558,#559);
#558 = CARTESIAN_POINT('',(-94.,-50.,-8.));
#559 = VECTOR('',#560,1.);
#560 = DIRECTION('',(0.,1.,0.));
#561 = PCURVE('',#254,#562);
#562 = DEFINITIONAL_REPRESENTATION('',(#563),#566);
#563 = B_SPLINE_CURVE_WITH_KNOTS('',1,(#564,#565),.UNSPECIFIED.,.F.,.F.,
  (2,2),(16.066666666667,20.257101687966),.PIECEWISE_BEZIER_KNOTS.);
#564 = CARTESIAN_POINT('',(8.,-33.93333333333));
#565 = CARTESIAN_POINT('',(8.,-29.74289831203));
#566 = ( GEOMETRIC_REPRESENTATION_CONTEXT(2) 
PARAMETRIC_REPRESENTATION_CONTEXT() REPRESENTATION_CONTEXT('2D SPACE',''
  ) );
#567 = PCURVE('',#136,#568);
#568 = DEFINITIONAL_REPRESENTATION('',(#569),#572);
#569 = B_SPLINE_CURVE_WITH_KNOTS('',1,(#570,#571),.UNSPECIFIED.,.F.,.F.,
  (2,2),(16.066666666667,20.257101687966),.PIECEWISE_BEZIER_KNOTS.);
#570 = CARTESIAN_POINT('',(406.,66.066666666667));
#571 = CARTESIAN_POINT('',(406.,70.257101687966));
#572 = ( GEOMETRIC_REPRESENTATION_CONTEXT(2) 
PARAMETRIC_REPRESENTATION_CONTEXT() REPRESENTATION_CONTEXT('2D SPACE',''
  ) );
#573 = ORIENTED_EDGE('',*,*,#574,.F.);
#574 = EDGE_CURVE('',#240,#552,#575,.T.);
#575 = SURFACE_CURVE('',#576,(#581,#592),.PCURVE_S1.);
#576 = CIRCLE('',#577,33.933333333333);
#577 = AXIS2_PLACEMENT_3D('',#578,#579,#580);
#578 = CARTESIAN_POINT('',(-94.,0.,-4.218847493576E-15));
#579 = DIRECTION('',(-1.,-1.015955764491E-16,-4.187874670492E-16));
#580 = DIRECTION('',(0.,0.97181218705,-0.235756385069));
#581 = PCURVE('',#254,#582);
#582 = DEFINITIONAL_REPRESENTATION('',(#583),#591);
#583 = ( BOUNDED_CURVE() B_SPLINE_CURVE(2,(#584,#585,#586,#587,#588,#589
,#590),.UNSPECIFIED.,.T.,.F.) B_SPLINE_CURVE_WITH_KNOTS((1,2,2,2,2,1),(
    -2.094395102393,0.,2.094395102393,4.188790204786,6.28318530718,
8.377580409573),.UNSPECIFIED.) CURVE() GEOMETRIC_REPRESENTATION_ITEM() 
RATIONAL_B_SPLINE_CURVE((1.,0.5,1.,0.5,1.,0.5,1.)) REPRESENTATION_ITEM(
  '') );
#584 = CARTESIAN_POINT('',(8.,32.97682688057));
#585 = CARTESIAN_POINT('',(65.117539629551,19.120420420019));
#586 = CARTESIAN_POINT('',(24.558769814776,-23.41661667056));
#587 = CARTESIAN_POINT('',(-16.,-65.95365376114));
#588 = CARTESIAN_POINT('',(-32.55876981477,-9.56021021001));
#589 = CARTESIAN_POINT('',(-49.11753962955,46.833233341121));
#590 = CARTESIAN_POINT('',(8.,32.97682688057));
#591 = ( GEOMETRIC_REPRESENTATION_CONTEXT(2) 
PARAMETRIC_REPRESENTATION_CONTEXT() REPRESENTATION_CONTEXT('2D SPACE',''
  ) );
#592 = PCURVE('',#282,#593);
#593 = DEFINITIONAL_REPRESENTATION('',(#594),#598);
#594 = LINE('',#595,#596);
#595 = CARTESIAN_POINT('',(-7.615984814939,-0.));
#596 = VECTOR('',#597,1.);
#597 = DIRECTION('',(1.,-0.));
#598 = ( GEOMETRIC_REPRESENTATION_CONTEXT(2) 
PARAMETRIC_REPRESENTATION_CONTEXT() REPRESENTATION_CONTEXT('2D SPACE',''
  ) );
#599 = ORIENTED_EDGE('',*,*,#239,.F.);
#600 = ORIENTED_EDGE('',*,*,#601,.F.);
#601 = EDGE_CURVE('',#554,#208,#602,.T.);
#602 = SURFACE_CURVE('',#603,(#608,#615),.PCURVE_S1.);
#603 = CIRCLE('',#604,32.333333333333);
#604 = AXIS2_PLACEMENT_3D('',#605,#606,#607);
#605 = CARTESIAN_POINT('',(-94.,0.,-4.218847493576E-15));
#606 = DIRECTION('',(1.,-1.926694336262E-15,4.395109705733E-16));
#607 = DIRECTION('',(-1.758043882293E-15,-0.968907641222,-0.247422680412
    ));
#608 = PCURVE('',#254,#609);
#609 = DEFINITIONAL_REPRESENTATION('',(#610),#614);
#610 = CIRCLE('',#611,32.333333333333);
#611 = AXIS2_PLACEMENT_2D('',#612,#613);
#612 = CARTESIAN_POINT('',(0.,0.));
#613 = DIRECTION('',(0.247422680412,-0.968907641222));
#614 = ( GEOMETRIC_REPRESENTATION_CONTEXT(2) 
PARAMETRIC_REPRESENTATION_CONTEXT() REPRESENTATION_CONTEXT('2D SPACE',''
  ) );
#615 = PCURVE('',#616,#621);
#616 = CONICAL_SURFACE('',#617,32.366666666667,3.332099587825E-02);
#617 = AXIS2_PLACEMENT_3D('',#618,#619,#620);
#618 = CARTESIAN_POINT('',(-95.,0.,-4.440892098501E-15));
#619 = DIRECTION('',(-1.,-0.,-2.22044604925E-16));
#620 = DIRECTION('',(2.22044604925E-16,0.,-1.));
#621 = DEFINITIONAL_REPRESENTATION('',(#622),#626);
#622 = LINE('',#623,#624);
#623 = CARTESIAN_POINT('',(-4.962408302259,-1.));
#624 = VECTOR('',#625,1.);
#625 = DIRECTION('',(-1.,-0.));
#626 = ( GEOMETRIC_REPRESENTATION_CONTEXT(2) 
PARAMETRIC_REPRESENTATION_CONTEXT() REPRESENTATION_CONTEXT('2D SPACE',''
  ) );
#627 = ADVANCED_FACE('',(#628),#616,.F.);
#628 = FACE_BOUND('',#629,.F.);
#629 = EDGE_LOOP('',(#630,#631,#659,#687));
#630 = ORIENTED_EDGE('',*,*,#601,.T.);
#631 = ORIENTED_EDGE('',*,*,#632,.T.);
#632 = EDGE_CURVE('',#208,#298,#633,.T.);
#633 = SURFACE_CURVE('',#634,(#639,#649),.PCURVE_S1.);
#634 = HYPERBOLA('',#635,240.,8.);
#635 = AXIS2_PLACEMENT_3D('',#636,#637,#638);
#636 = CARTESIAN_POINT('',(875.99999999999,0.,-8.));
#637 = DIRECTION('',(0.,0.,1.));
#638 = DIRECTION('',(-1.,0.,0.));
#639 = PCURVE('',#616,#640);
#640 = DEFINITIONAL_REPRESENTATION('',(#641),#648);
#641 = B_SPLINE_CURVE_WITH_KNOTS('',5,(#642,#643,#644,#645,#646,#647),
  .UNSPECIFIED.,.F.,.F.,(6,6),(-2.074136040273,-2.032835004507),
  .PIECEWISE_BEZIER_KNOTS.);
#642 = CARTESIAN_POINT('',(-7.6039623121,-1.));
#643 = CARTESIAN_POINT('',(-7.601918549506,-8.763276493915));
#644 = CARTESIAN_POINT('',(-7.599854340656,-16.44382287353));
#645 = CARTESIAN_POINT('',(-7.597769430604,-24.04274267186));
#646 = CARTESIAN_POINT('',(-7.595663560724,-31.5611159063));
#647 = CARTESIAN_POINT('',(-7.593536468753,-39.));
#648 = ( GEOMETRIC_REPRESENTATION_CONTEXT(2) 
PARAMETRIC_REPRESENTATION_CONTEXT() REPRESENTATION_CONTEXT('2D SPACE',''
  ) );
#649 = PCURVE('',#224,#650);
#650 = DEFINITIONAL_REPRESENTATION('',(#651),#658);
#651 = B_SPLINE_CURVE_WITH_KNOTS('',5,(#652,#653,#654,#655,#656,#657),
  .UNSPECIFIED.,.F.,.F.,(6,6),(-2.201589797694,-2.023910635099),
  .PIECEWISE_BEZIER_KNOTS.);
#652 = CARTESIAN_POINT('',(-1.350438065889,-0.999999999998));
#653 = CARTESIAN_POINT('',(-1.342670670803,-39.07484946949));
#654 = CARTESIAN_POINT('',(-1.334566592224,-75.4165132355));
#655 = CARTESIAN_POINT('',(-1.326107350915,-110.1251530932));
#656 = CARTESIAN_POINT('',(-1.317273191758,-143.2918404087));
#657 = CARTESIAN_POINT('',(-1.30804310539,-174.9999999999));
#658 = ( GEOMETRIC_REPRESENTATION_CONTEXT(2) 
PARAMETRIC_REPRESENTATION_CONTEXT() REPRESENTATION_CONTEXT('2D SPACE',''
  ) );
#659 = ORIENTED_EDGE('',*,*,#660,.T.);
#660 = EDGE_CURVE('',#298,#661,#663,.T.);
#661 = VERTEX_POINT('',#662);
#662 = CARTESIAN_POINT('',(-56.,-30.01895697351,-7.999999999999));
#663 = SURFACE_CURVE('',#664,(#669,#676),.PCURVE_S1.);
#664 = CIRCLE('',#665,31.066666666667);
#665 = AXIS2_PLACEMENT_3D('',#666,#667,#668);
#666 = CARTESIAN_POINT('',(-56.,0.,4.218847493576E-15));
#667 = DIRECTION('',(-1.,-1.954536351668E-15,-2.287154728842E-16));
#668 = DIRECTION('',(-1.829723783073E-15,0.966275439062,-0.257510729614)
  );
#669 = PCURVE('',#616,#670);
#670 = DEFINITIONAL_REPRESENTATION('',(#671),#675);
#671 = LINE('',#672,#673);
#672 = CARTESIAN_POINT('',(-7.593536468753,-39.));
#673 = VECTOR('',#674,1.);
#674 = DIRECTION('',(1.,-0.));
#675 = ( GEOMETRIC_REPRESENTATION_CONTEXT(2) 
PARAMETRIC_REPRESENTATION_CONTEXT() REPRESENTATION_CONTEXT('2D SPACE',''
  ) );
#676 = PCURVE('',#312,#677);
#677 = DEFINITIONAL_REPRESENTATION('',(#678),#686);
#678 = ( BOUNDED_CURVE() B_SPLINE_CURVE(2,(#679,#680,#681,#682,#683,#684
,#685),.UNSPECIFIED.,.T.,.F.) B_SPLINE_CURVE_WITH_KNOTS((1,2,2,2,2,1),(
    -2.094395102393,0.,2.094395102393,4.188790204786,6.28318530718,
8.377580409573),.UNSPECIFIED.) CURVE() GEOMETRIC_REPRESENTATION_ITEM() 
RATIONAL_B_SPLINE_CURVE((1.,0.5,1.,0.5,1.,0.5,1.)) REPRESENTATION_ITEM(
  '') );
#679 = CARTESIAN_POINT('',(7.999999999999,30.018956973516));
#680 = CARTESIAN_POINT('',(59.994358668353,16.162550512966));
#681 = CARTESIAN_POINT('',(21.997179334177,-21.93768171703));
#682 = CARTESIAN_POINT('',(-15.99999999999,-60.03791394703));
#683 = CARTESIAN_POINT('',(-29.99717933417,-8.081275256483));
#684 = CARTESIAN_POINT('',(-43.99435866835,43.875363434066));
#685 = CARTESIAN_POINT('',(7.999999999999,30.018956973516));
#686 = ( GEOMETRIC_REPRESENTATION_CONTEXT(2) 
PARAMETRIC_REPRESENTATION_CONTEXT() REPRESENTATION_CONTEXT('2D SPACE',''
  ) );
#687 = ORIENTED_EDGE('',*,*,#688,.T.);
#688 = EDGE_CURVE('',#661,#554,#689,.T.);
#689 = SURFACE_CURVE('',#690,(#695,#705),.PCURVE_S1.);
#690 = HYPERBOLA('',#691,240.,8.);
#691 = AXIS2_PLACEMENT_3D('',#692,#693,#694);
#692 = CARTESIAN_POINT('',(875.99999999999,0.,-8.));
#693 = DIRECTION('',(0.,0.,1.));
#694 = DIRECTION('',(-1.,0.,0.));
#695 = PCURVE('',#616,#696);
#696 = DEFINITIONAL_REPRESENTATION('',(#697),#704);
#697 = B_SPLINE_CURVE_WITH_KNOTS('',5,(#698,#699,#700,#701,#702,#703),
  .UNSPECIFIED.,.F.,.F.,(6,6),(2.032835004507,2.074136040273),
  .PIECEWISE_BEZIER_KNOTS.);
#698 = CARTESIAN_POINT('',(-4.972834145606,-39.));
#699 = CARTESIAN_POINT('',(-4.970707053636,-31.5611159063));
#700 = CARTESIAN_POINT('',(-4.968601183755,-24.04274267186));
#701 = CARTESIAN_POINT('',(-4.966516273704,-16.44382287354));
#702 = CARTESIAN_POINT('',(-4.964452064854,-8.763276493914));
#703 = CARTESIAN_POINT('',(-4.962408302259,-1.));
#704 = ( GEOMETRIC_REPRESENTATION_CONTEXT(2) 
PARAMETRIC_REPRESENTATION_CONTEXT() REPRESENTATION_CONTEXT('2D SPACE',''
  ) );
#705 = PCURVE('',#224,#706);
#706 = DEFINITIONAL_REPRESENTATION('',(#707),#714);
#707 = B_SPLINE_CURVE_WITH_KNOTS('',5,(#708,#709,#710,#711,#712,#713),
  .UNSPECIFIED.,.F.,.F.,(6,6),(2.023910635099,2.201589797694),
  .PIECEWISE_BEZIER_KNOTS.);
#708 = CARTESIAN_POINT('',(-4.97514220179,-174.9999999999));
#709 = CARTESIAN_POINT('',(-4.965912115421,-143.2918404087));
#710 = CARTESIAN_POINT('',(-4.957077956265,-110.1251530932));
#711 = CARTESIAN_POINT('',(-4.948618714955,-75.4165132355));
#712 = CARTESIAN_POINT('',(-4.940514636377,-39.07484946949));
#713 = CARTESIAN_POINT('',(-4.932747241291,-0.999999999998));
#714 = ( GEOMETRIC_REPRESENTATION_CONTEXT(2) 
PARAMETRIC_REPRESENTATION_CONTEXT() REPRESENTATION_CONTEXT('2D SPACE',''
  ) );
#715 = ADVANCED_FACE('',(#716),#282,.T.);
#716 = FACE_BOUND('',#717,.T.);
#717 = EDGE_LOOP('',(#718,#719,#720,#748));
#718 = ORIENTED_EDGE('',*,*,#574,.F.);
#719 = ORIENTED_EDGE('',*,*,#265,.T.);
#720 = ORIENTED_EDGE('',*,*,#721,.T.);
#721 = EDGE_CURVE('',#266,#722,#724,.T.);
#722 = VERTEX_POINT('',#723);
#723 = CARTESIAN_POINT('',(-56.,-31.67192938725,-8.));
#724 = SURFACE_CURVE('',#725,(#730,#737),.PCURVE_S1.);
#725 = CIRCLE('',#726,32.666666666667);
#726 = AXIS2_PLACEMENT_3D('',#727,#728,#729);
#727 = CARTESIAN_POINT('',(-56.,0.,4.218847493576E-15));
#728 = DIRECTION('',(-1.,-5.494154264264E-17,-2.175130823755E-16));
#729 = DIRECTION('',(0.,0.969548858793,-0.244897959184));
#730 = PCURVE('',#282,#731);
#731 = DEFINITIONAL_REPRESENTATION('',(#732),#736);
#732 = LINE('',#733,#734);
#733 = CARTESIAN_POINT('',(-7.606567188507,-38.));
#734 = VECTOR('',#735,1.);
#735 = DIRECTION('',(1.,-0.));
#736 = ( GEOMETRIC_REPRESENTATION_CONTEXT(2) 
PARAMETRIC_REPRESENTATION_CONTEXT() REPRESENTATION_CONTEXT('2D SPACE',''
  ) );
#737 = PCURVE('',#312,#738);
#738 = DEFINITIONAL_REPRESENTATION('',(#739),#747);
#739 = ( BOUNDED_CURVE() B_SPLINE_CURVE(2,(#740,#741,#742,#743,#744,#745
,#746),.UNSPECIFIED.,.T.,.F.) B_SPLINE_CURVE_WITH_KNOTS((1,2,2,2,2,1),(
    -2.094395102393,0.,2.094395102393,4.188790204786,6.28318530718,
8.377580409573),.UNSPECIFIED.) CURVE() GEOMETRIC_REPRESENTATION_ITEM() 
RATIONAL_B_SPLINE_CURVE((1.,0.5,1.,0.5,1.,0.5,1.)) REPRESENTATION_ITEM(
  '') );
#740 = CARTESIAN_POINT('',(8.,31.671929387253));
#741 = CARTESIAN_POINT('',(62.857390872455,17.815522926702));
#742 = CARTESIAN_POINT('',(23.428695436228,-22.7641679239));
#743 = CARTESIAN_POINT('',(-16.,-63.3438587745));
#744 = CARTESIAN_POINT('',(-31.42869543622,-8.907761463351));
#745 = CARTESIAN_POINT('',(-46.85739087245,45.528335847804));
#746 = CARTESIAN_POINT('',(8.,31.671929387253));
#747 = ( GEOMETRIC_REPRESENTATION_CONTEXT(2) 
PARAMETRIC_REPRESENTATION_CONTEXT() REPRESENTATION_CONTEXT('2D SPACE',''
  ) );
#748 = ORIENTED_EDGE('',*,*,#749,.T.);
#749 = EDGE_CURVE('',#722,#552,#750,.T.);
#750 = SURFACE_CURVE('',#751,(#756,#766),.PCURVE_S1.);
#751 = HYPERBOLA('',#752,240.,8.);
#752 = AXIS2_PLACEMENT_3D('',#753,#754,#755);
#753 = CARTESIAN_POINT('',(924.,0.,-8.));
#754 = DIRECTION('',(0.,0.,1.));
#755 = DIRECTION('',(-1.,0.,0.));
#756 = PCURVE('',#282,#757);
#757 = DEFINITIONAL_REPRESENTATION('',(#758),#765);
#758 = B_SPLINE_CURVE_WITH_KNOTS('',5,(#759,#760,#761,#762,#763,#764),
  .UNSPECIFIED.,.F.,.F.,(6,6),(2.084718159158,2.123909285581),
  .PIECEWISE_BEZIER_KNOTS.);
#759 = CARTESIAN_POINT('',(-4.959803425852,-37.99999999999));
#760 = CARTESIAN_POINT('',(-4.957883860477,-30.552448468));
#761 = CARTESIAN_POINT('',(-4.955982529874,-23.029635661));
#762 = CARTESIAN_POINT('',(-4.95409921782,-15.43060832617));
#763 = CARTESIAN_POINT('',(-4.952233711079,-7.754393947766));
#764 = CARTESIAN_POINT('',(-4.95038579942,1.589849228959E-12));
#765 = ( GEOMETRIC_REPRESENTATION_CONTEXT(2) 
PARAMETRIC_REPRESENTATION_CONTEXT() REPRESENTATION_CONTEXT('2D SPACE',''
  ) );
#766 = PCURVE('',#136,#767);
#767 = DEFINITIONAL_REPRESENTATION('',(#768),#772);
#768 = ( BOUNDED_CURVE() B_SPLINE_CURVE(2,(#769,#770,#771),
.UNSPECIFIED.,.F.,.F.) B_SPLINE_CURVE_WITH_KNOTS((3,3),(2.084718159158,
2.123909285581),.PIECEWISE_BEZIER_KNOTS.) CURVE() 
GEOMETRIC_REPRESENTATION_ITEM() RATIONAL_B_SPLINE_CURVE((1.,
1.000191999192,1.)) REPRESENTATION_ITEM('') );
#769 = CARTESIAN_POINT('',(443.99999999999,68.328070612747));
#770 = CARTESIAN_POINT('',(425.38350393424,67.68803080121));
#771 = CARTESIAN_POINT('',(405.99999999999,67.02317311943));
#772 = ( GEOMETRIC_REPRESENTATION_CONTEXT(2) 
PARAMETRIC_REPRESENTATION_CONTEXT() REPRESENTATION_CONTEXT('2D SPACE',''
  ) );
#773 = ADVANCED_FACE('',(#774),#312,.T.);
#774 = FACE_BOUND('',#775,.T.);
#775 = EDGE_LOOP('',(#776,#795,#796,#797));
#776 = ORIENTED_EDGE('',*,*,#777,.F.);
#777 = EDGE_CURVE('',#722,#661,#778,.T.);
#778 = SURFACE_CURVE('',#779,(#783,#789),.PCURVE_S1.);
#779 = LINE('',#780,#781);
#780 = CARTESIAN_POINT('',(-56.,-50.,-8.));
#781 = VECTOR('',#782,1.);
#782 = DIRECTION('',(0.,1.,0.));
#783 = PCURVE('',#312,#784);
#784 = DEFINITIONAL_REPRESENTATION('',(#785),#788);
#785 = B_SPLINE_CURVE_WITH_KNOTS('',1,(#786,#787),.UNSPECIFIED.,.F.,.F.,
  (2,2),(17.333333333333,20.257101687966),.PIECEWISE_BEZIER_KNOTS.);
#786 = CARTESIAN_POINT('',(8.,-32.66666666666));
#787 = CARTESIAN_POINT('',(8.,-29.74289831203));
#788 = ( GEOMETRIC_REPRESENTATION_CONTEXT(2) 
PARAMETRIC_REPRESENTATION_CONTEXT() REPRESENTATION_CONTEXT('2D SPACE',''
  ) );
#789 = PCURVE('',#136,#790);
#790 = DEFINITIONAL_REPRESENTATION('',(#791),#794);
#791 = B_SPLINE_CURVE_WITH_KNOTS('',1,(#792,#793),.UNSPECIFIED.,.F.,.F.,
  (2,2),(17.333333333333,20.257101687966),.PIECEWISE_BEZIER_KNOTS.);
#792 = CARTESIAN_POINT('',(444.,67.333333333333));
#793 = CARTESIAN_POINT('',(444.,70.257101687966));
#794 = ( GEOMETRIC_REPRESENTATION_CONTEXT(2) 
PARAMETRIC_REPRESENTATION_CONTEXT() REPRESENTATION_CONTEXT('2D SPACE',''
  ) );
#795 = ORIENTED_EDGE('',*,*,#721,.F.);
#796 = ORIENTED_EDGE('',*,*,#297,.F.);
#797 = ORIENTED_EDGE('',*,*,#660,.T.);
#798 = ADVANCED_FACE('',(#799),#224,.F.);
#799 = FACE_BOUND('',#800,.F.);
#800 = EDGE_LOOP('',(#801,#825,#826,#827,#828,#829,#854,#855));
#801 = ORIENTED_EDGE('',*,*,#802,.F.);
#802 = EDGE_CURVE('',#324,#803,#805,.T.);
#803 = VERTEX_POINT('',#804);
#804 = CARTESIAN_POINT('',(-48.,-29.74289831203,-8.));
#805 = SURFACE_CURVE('',#806,(#811,#818),.PCURVE_S1.);
#806 = CIRCLE('',#807,30.8);
#807 = AXIS2_PLACEMENT_3D('',#808,#809,#810);
#808 = CARTESIAN_POINT('',(-48.,0.,1.931788062848E-14));
#809 = DIRECTION('',(1.,0.,2.22044604925E-16));
#810 = DIRECTION('',(2.22044604925E-16,0.,-1.));
#811 = PCURVE('',#224,#812);
#812 = DEFINITIONAL_REPRESENTATION('',(#813),#817);
#813 = LINE('',#814,#815);
#814 = CARTESIAN_POINT('',(-0.,-175.));
#815 = VECTOR('',#816,1.);
#816 = DIRECTION('',(-1.,-0.));
#817 = ( GEOMETRIC_REPRESENTATION_CONTEXT(2) 
PARAMETRIC_REPRESENTATION_CONTEXT() REPRESENTATION_CONTEXT('2D SPACE',''
  ) );
#818 = PCURVE('',#45,#819);
#819 = DEFINITIONAL_REPRESENTATION('',(#820),#824);
#820 = CIRCLE('',#821,30.8);
#821 = AXIS2_PLACEMENT_2D('',#822,#823);
#822 = CARTESIAN_POINT('',(0.,0.));
#823 = DIRECTION('',(1.,0.));
#824 = ( GEOMETRIC_REPRESENTATION_CONTEXT(2) 
PARAMETRIC_REPRESENTATION_CONTEXT() REPRESENTATION_CONTEXT('2D SPACE',''
  ) );
#825 = ORIENTED_EDGE('',*,*,#323,.F.);
#826 = ORIENTED_EDGE('',*,*,#632,.F.);
#827 = ORIENTED_EDGE('',*,*,#207,.F.);
#828 = ORIENTED_EDGE('',*,*,#374,.T.);
#829 = ORIENTED_EDGE('',*,*,#830,.F.);
#830 = EDGE_CURVE('',#554,#375,#831,.T.);
#831 = SURFACE_CURVE('',#832,(#837,#847),.PCURVE_S1.);
#832 = HYPERBOLA('',#833,240.,8.);
#833 = AXIS2_PLACEMENT_3D('',#834,#835,#836);
#834 = CARTESIAN_POINT('',(875.99999999999,0.,-8.));
#835 = DIRECTION('',(0.,0.,1.));
#836 = DIRECTION('',(-1.,0.,0.));
#837 = PCURVE('',#224,#838);
#838 = DEFINITIONAL_REPRESENTATION('',(#839),#846);
#839 = B_SPLINE_CURVE_WITH_KNOTS('',5,(#840,#841,#842,#843,#844,#845),
  .UNSPECIFIED.,.F.,.F.,(6,6),(2.023910635099,2.201589797694),
  .PIECEWISE_BEZIER_KNOTS.);
#840 = CARTESIAN_POINT('',(-4.97514220179,-174.9999999999));
#841 = CARTESIAN_POINT('',(-4.965912115421,-143.2918404087));
#842 = CARTESIAN_POINT('',(-4.957077956265,-110.1251530932));
#843 = CARTESIAN_POINT('',(-4.948618714955,-75.4165132355));
#844 = CARTESIAN_POINT('',(-4.940514636377,-39.07484946949));
#845 = CARTESIAN_POINT('',(-4.932747241291,-0.999999999998));
#846 = ( GEOMETRIC_REPRESENTATION_CONTEXT(2) 
PARAMETRIC_REPRESENTATION_CONTEXT() REPRESENTATION_CONTEXT('2D SPACE',''
  ) );
#847 = PCURVE('',#136,#848);
#848 = DEFINITIONAL_REPRESENTATION('',(#849),#853);
#849 = HYPERBOLA('',#850,240.,8.);
#850 = AXIS2_PLACEMENT_2D('',#851,#852);
#851 = CARTESIAN_POINT('',(1.376E+03,100.));
#852 = DIRECTION('',(-1.,0.));
#853 = ( GEOMETRIC_REPRESENTATION_CONTEXT(2) 
PARAMETRIC_REPRESENTATION_CONTEXT() REPRESENTATION_CONTEXT('2D SPACE',''
  ) );
#854 = ORIENTED_EDGE('',*,*,#688,.F.);
#855 = ORIENTED_EDGE('',*,*,#856,.F.);
#856 = EDGE_CURVE('',#803,#661,#857,.T.);
#857 = SURFACE_CURVE('',#858,(#863,#873),.PCURVE_S1.);
#858 = HYPERBOLA('',#859,240.,8.);
#859 = AXIS2_PLACEMENT_3D('',#860,#861,#862);
#860 = CARTESIAN_POINT('',(875.99999999999,0.,-8.));
#861 = DIRECTION('',(0.,0.,1.));
#862 = DIRECTION('',(-1.,0.,0.));
#863 = PCURVE('',#224,#864);
#864 = DEFINITIONAL_REPRESENTATION('',(#865),#872);
#865 = B_SPLINE_CURVE_WITH_KNOTS('',5,(#866,#867,#868,#869,#870,#871),
  .UNSPECIFIED.,.F.,.F.,(6,6),(2.023910635099,2.201589797694),
  .PIECEWISE_BEZIER_KNOTS.);
#866 = CARTESIAN_POINT('',(-4.97514220179,-174.9999999999));
#867 = CARTESIAN_POINT('',(-4.965912115421,-143.2918404087));
#868 = CARTESIAN_POINT('',(-4.957077956265,-110.1251530932));
#869 = CARTESIAN_POINT('',(-4.948618714955,-75.4165132355));
#870 = CARTESIAN_POINT('',(-4.940514636377,-39.07484946949));
#871 = CARTESIAN_POINT('',(-4.932747241291,-0.999999999998));
#872 = ( GEOMETRIC_REPRESENTATION_CONTEXT(2) 
PARAMETRIC_REPRESENTATION_CONTEXT() REPRESENTATION_CONTEXT('2D SPACE',''
  ) );
#873 = PCURVE('',#136,#874);
#874 = DEFINITIONAL_REPRESENTATION('',(#875),#879);
#875 = HYPERBOLA('',#876,240.,8.);
#876 = AXIS2_PLACEMENT_2D('',#877,#878);
#877 = CARTESIAN_POINT('',(1.376E+03,100.));
#878 = DIRECTION('',(-1.,0.));
#879 = ( GEOMETRIC_REPRESENTATION_CONTEXT(2) 
PARAMETRIC_REPRESENTATION_CONTEXT() REPRESENTATION_CONTEXT('2D SPACE',''
  ) );
#880 = ADVANCED_FACE('',(#881),#106,.F.);
#881 = FACE_BOUND('',#882,.F.);
#882 = EDGE_LOOP('',(#883,#884,#885,#906));
#883 = ORIENTED_EDGE('',*,*,#152,.F.);
#884 = ORIENTED_EDGE('',*,*,#89,.T.);
#885 = ORIENTED_EDGE('',*,*,#886,.T.);
#886 = EDGE_CURVE('',#90,#400,#887,.T.);
#887 = SURFACE_CURVE('',#888,(#892,#899),.PCURVE_S1.);
#888 = LINE('',#889,#890);
#889 = CARTESIAN_POINT('',(-222.,-42.14747916542,-8.));
#890 = VECTOR('',#891,1.);
#891 = DIRECTION('',(0.,1.,1.656921436768E-15));
#892 = PCURVE('',#106,#893);
#893 = DEFINITIONAL_REPRESENTATION('',(#894),#898);
#894 = LINE('',#895,#896);
#895 = CARTESIAN_POINT('',(8.,-42.14747916542));
#896 = VECTOR('',#897,1.);
#897 = DIRECTION('',(-1.656921436768E-15,1.));
#898 = ( GEOMETRIC_REPRESENTATION_CONTEXT(2) 
PARAMETRIC_REPRESENTATION_CONTEXT() REPRESENTATION_CONTEXT('2D SPACE',''
  ) );
#899 = PCURVE('',#136,#900);
#900 = DEFINITIONAL_REPRESENTATION('',(#901),#905);
#901 = LINE('',#902,#903);
#902 = CARTESIAN_POINT('',(278.,57.852520834574));
#903 = VECTOR('',#904,1.);
#904 = DIRECTION('',(0.,1.));
#905 = ( GEOMETRIC_REPRESENTATION_CONTEXT(2) 
PARAMETRIC_REPRESENTATION_CONTEXT() REPRESENTATION_CONTEXT('2D SPACE',''
  ) );
#906 = ORIENTED_EDGE('',*,*,#399,.F.);
#907 = ADVANCED_FACE('',(#908),#136,.F.);
#908 = FACE_BOUND('',#909,.F.);
#909 = EDGE_LOOP('',(#910,#911,#932,#933,#934,#935,#936,#937,#938,#939,
    #940,#941));
#910 = ORIENTED_EDGE('',*,*,#118,.F.);
#911 = ORIENTED_EDGE('',*,*,#912,.T.);
#912 = EDGE_CURVE('',#24,#803,#913,.T.);
#913 = SURFACE_CURVE('',#914,(#918,#925),.PCURVE_S1.);
#914 = LINE('',#915,#916);
#915 = CARTESIAN_POINT('',(-48.,-36.22719972617,-8.));
#916 = VECTOR('',#917,1.);
#917 = DIRECTION('',(0.,1.,1.917631072592E-15));
#918 = PCURVE('',#136,#919);
#919 = DEFINITIONAL_REPRESENTATION('',(#920),#924);
#920 = LINE('',#921,#922);
#921 = CARTESIAN_POINT('',(452.,63.772800273827));
#922 = VECTOR('',#923,1.);
#923 = DIRECTION('',(0.,1.));
#924 = ( GEOMETRIC_REPRESENTATION_CONTEXT(2) 
PARAMETRIC_REPRESENTATION_CONTEXT() REPRESENTATION_CONTEXT('2D SPACE',''
  ) );
#925 = PCURVE('',#45,#926);
#926 = DEFINITIONAL_REPRESENTATION('',(#927),#931);
#927 = LINE('',#928,#929);
#928 = CARTESIAN_POINT('',(8.,-36.22719972617));
#929 = VECTOR('',#930,1.);
#930 = DIRECTION('',(-1.917631072592E-15,1.));
#931 = ( GEOMETRIC_REPRESENTATION_CONTEXT(2) 
PARAMETRIC_REPRESENTATION_CONTEXT() REPRESENTATION_CONTEXT('2D SPACE',''
  ) );
#932 = ORIENTED_EDGE('',*,*,#856,.T.);
#933 = ORIENTED_EDGE('',*,*,#777,.F.);
#934 = ORIENTED_EDGE('',*,*,#749,.T.);
#935 = ORIENTED_EDGE('',*,*,#551,.T.);
#936 = ORIENTED_EDGE('',*,*,#830,.T.);
#937 = ORIENTED_EDGE('',*,*,#529,.F.);
#938 = ORIENTED_EDGE('',*,*,#505,.T.);
#939 = ORIENTED_EDGE('',*,*,#484,.T.);
#940 = ORIENTED_EDGE('',*,*,#423,.T.);
#941 = ORIENTED_EDGE('',*,*,#886,.F.);
#942 = ADVANCED_FACE('',(#943),#45,.T.);
#943 = FACE_BOUND('',#944,.T.);
#944 = EDGE_LOOP('',(#945,#946,#947,#948));
#945 = ORIENTED_EDGE('',*,*,#21,.T.);
#946 = ORIENTED_EDGE('',*,*,#912,.T.);
#947 = ORIENTED_EDGE('',*,*,#802,.F.);
#948 = ORIENTED_EDGE('',*,*,#350,.T.);
#949 = MANIFOLD_SOLID_BREP('',#950);
#950 = CLOSED_SHELL('',(#951,#1081,#1194,#1262,#1316,#1323,#1384));
#951 = ADVANCED_FACE('',(#952,#1021),#967,.F.);
#952 = FACE_BOUND('',#953,.F.);
#953 = EDGE_LOOP('',(#954,#990));
#954 = ORIENTED_EDGE('',*,*,#955,.T.);
#955 = EDGE_CURVE('',#956,#958,#960,.T.);
#956 = VERTEX_POINT('',#957);
#957 = CARTESIAN_POINT('',(-219.,37.250637578436,-8.));
#958 = VERTEX_POINT('',#959);
#959 = CARTESIAN_POINT('',(-219.,-37.25063757843,-8.));
#960 = SURFACE_CURVE('',#961,(#966,#978),.PCURVE_S1.);
#961 = CIRCLE('',#962,38.1);
#962 = AXIS2_PLACEMENT_3D('',#963,#964,#965);
#963 = CARTESIAN_POINT('',(-219.,0.,-4.218847493576E-15));
#964 = DIRECTION('',(1.,-0.,2.22044604925E-16));
#965 = DIRECTION('',(2.22044604925E-16,0.,-1.));
#966 = PCURVE('',#967,#972);
#967 = PLANE('',#968);
#968 = AXIS2_PLACEMENT_3D('',#969,#970,#971);
#969 = CARTESIAN_POINT('',(-219.,0.,-4.218847493576E-15));
#970 = DIRECTION('',(1.,0.,2.22044604925E-16));
#971 = DIRECTION('',(2.22044604925E-16,0.,-1.));
#972 = DEFINITIONAL_REPRESENTATION('',(#973),#977);
#973 = CIRCLE('',#974,38.1);
#974 = AXIS2_PLACEMENT_2D('',#975,#976);
#975 = CARTESIAN_POINT('',(0.,0.));
#976 = DIRECTION('',(1.,0.));
#977 = ( GEOMETRIC_REPRESENTATION_CONTEXT(2) 
PARAMETRIC_REPRESENTATION_CONTEXT() REPRESENTATION_CONTEXT('2D SPACE',''
  ) );
#978 = PCURVE('',#979,#984);
#979 = CONICAL_SURFACE('',#980,38.1,3.332099587825E-02);
#980 = AXIS2_PLACEMENT_3D('',#981,#982,#983);
#981 = CARTESIAN_POINT('',(-219.,0.,-4.218847493576E-15));
#982 = DIRECTION('',(-1.,-0.,-2.22044604925E-16));
#983 = DIRECTION('',(2.22044604925E-16,0.,-1.));
#984 = DEFINITIONAL_REPRESENTATION('',(#985),#989);
#985 = LINE('',#986,#987);
#986 = CARTESIAN_POINT('',(-0.,-0.));
#987 = VECTOR('',#988,1.);
#988 = DIRECTION('',(-1.,-0.));
#989 = ( GEOMETRIC_REPRESENTATION_CONTEXT(2) 
PARAMETRIC_REPRESENTATION_CONTEXT() REPRESENTATION_CONTEXT('2D SPACE',''
  ) );
#990 = ORIENTED_EDGE('',*,*,#991,.F.);
#991 = EDGE_CURVE('',#956,#958,#992,.T.);
#992 = SURFACE_CURVE('',#993,(#998,#1009),.PCURVE_S1.);
#993 = CIRCLE('',#994,38.1);
#994 = AXIS2_PLACEMENT_3D('',#995,#996,#997);
#995 = CARTESIAN_POINT('',(-219.,0.,-4.218847493576E-15));
#996 = DIRECTION('',(-1.,0.,0.));
#997 = DIRECTION('',(0.,0.977707023056,-0.209973753281));
#998 = PCURVE('',#967,#999);
#999 = DEFINITIONAL_REPRESENTATION('',(#1000),#1008);
#1000 = ( BOUNDED_CURVE() B_SPLINE_CURVE(2,(#1001,#1002,#1003,#1004,
#1005,#1006,#1007),.UNSPECIFIED.,.T.,.F.) B_SPLINE_CURVE_WITH_KNOTS((1,2
    ,2,2,2,1),(-2.094395102393,0.,2.094395102393,4.188790204786,
6.28318530718,8.377580409573),.UNSPECIFIED.) CURVE() 
GEOMETRIC_REPRESENTATION_ITEM() RATIONAL_B_SPLINE_CURVE((1.,0.5,1.,0.5,
1.,0.5,1.)) REPRESENTATION_ITEM('') );
#1001 = CARTESIAN_POINT('',(8.,37.250637578436));
#1002 = CARTESIAN_POINT('',(72.519996900186,23.394231117885));
#1003 = CARTESIAN_POINT('',(28.259998450093,-25.55352201949));
#1004 = CARTESIAN_POINT('',(-16.,-74.50127515687));
#1005 = CARTESIAN_POINT('',(-36.25999845009,-11.69711555894));
#1006 = CARTESIAN_POINT('',(-56.51999690018,51.107044038987));
#1007 = CARTESIAN_POINT('',(8.,37.250637578436));
#1008 = ( GEOMETRIC_REPRESENTATION_CONTEXT(2) 
PARAMETRIC_REPRESENTATION_CONTEXT() REPRESENTATION_CONTEXT('2D SPACE',''
  ) );
#1009 = PCURVE('',#1010,#1015);
#1010 = CONICAL_SURFACE('',#1011,38.1,3.332099587825E-02);
#1011 = AXIS2_PLACEMENT_3D('',#1012,#1013,#1014);
#1012 = CARTESIAN_POINT('',(-219.,0.,-4.218847493576E-15));
#1013 = DIRECTION('',(-1.,-0.,-2.22044604925E-16));
#1014 = DIRECTION('',(2.22044604925E-16,0.,-1.));
#1015 = DEFINITIONAL_REPRESENTATION('',(#1016),#1020);
#1016 = LINE('',#1017,#1018);
#1017 = CARTESIAN_POINT('',(-7.642433519472,-0.));
#1018 = VECTOR('',#1019,1.);
#1019 = DIRECTION('',(1.,-0.));
#1020 = ( GEOMETRIC_REPRESENTATION_CONTEXT(2) 
PARAMETRIC_REPRESENTATION_CONTEXT() REPRESENTATION_CONTEXT('2D SPACE',''
  ) );
#1021 = FACE_BOUND('',#1022,.F.);
#1022 = EDGE_LOOP('',(#1023,#1054));
#1023 = ORIENTED_EDGE('',*,*,#1024,.F.);
#1024 = EDGE_CURVE('',#1025,#1027,#1029,.T.);
#1025 = VERTEX_POINT('',#1026);
#1026 = CARTESIAN_POINT('',(-219.,-35.61249780624,-8.000000000001));
#1027 = VERTEX_POINT('',#1028);
#1028 = CARTESIAN_POINT('',(-219.,-8.939921633776E-15,-36.5));
#1029 = SURFACE_CURVE('',#1030,(#1035,#1042),.PCURVE_S1.);
#1030 = CIRCLE('',#1031,36.5);
#1031 = AXIS2_PLACEMENT_3D('',#1032,#1033,#1034);
#1032 = CARTESIAN_POINT('',(-219.,0.,-4.218847493576E-15));
#1033 = DIRECTION('',(1.,0.,2.22044604925E-16));
#1034 = DIRECTION('',(2.22044604925E-16,0.,-1.));
#1035 = PCURVE('',#967,#1036);
#1036 = DEFINITIONAL_REPRESENTATION('',(#1037),#1041);
#1037 = CIRCLE('',#1038,36.5);
#1038 = AXIS2_PLACEMENT_2D('',#1039,#1040);
#1039 = CARTESIAN_POINT('',(0.,0.));
#1040 = DIRECTION('',(1.,0.));
#1041 = ( GEOMETRIC_REPRESENTATION_CONTEXT(2) 
PARAMETRIC_REPRESENTATION_CONTEXT() REPRESENTATION_CONTEXT('2D SPACE',''
  ) );
#1042 = PCURVE('',#1043,#1048);
#1043 = CONICAL_SURFACE('',#1044,36.533333333333,3.332099587825E-02);
#1044 = AXIS2_PLACEMENT_3D('',#1045,#1046,#1047);
#1045 = CARTESIAN_POINT('',(-220.,0.,-4.440892098501E-15));
#1046 = DIRECTION('',(-1.,-0.,-2.22044604925E-16));
#1047 = DIRECTION('',(2.22044604925E-16,0.,-1.));
#1048 = DEFINITIONAL_REPRESENTATION('',(#1049),#1053);
#1049 = LINE('',#1050,#1051);
#1050 = CARTESIAN_POINT('',(-0.,-1.));
#1051 = VECTOR('',#1052,1.);
#1052 = DIRECTION('',(-1.,-0.));
#1053 = ( GEOMETRIC_REPRESENTATION_CONTEXT(2) 
PARAMETRIC_REPRESENTATION_CONTEXT() REPRESENTATION_CONTEXT('2D SPACE',''
  ) );
#1054 = ORIENTED_EDGE('',*,*,#1055,.F.);
#1055 = EDGE_CURVE('',#1027,#1025,#1056,.T.);
#1056 = SURFACE_CURVE('',#1057,(#1062,#1069),.PCURVE_S1.);
#1057 = CIRCLE('',#1058,36.5);
#1058 = AXIS2_PLACEMENT_3D('',#1059,#1060,#1061);
#1059 = CARTESIAN_POINT('',(-219.,0.,-4.218847493576E-15));
#1060 = DIRECTION('',(1.,0.,2.22044604925E-16));
#1061 = DIRECTION('',(2.22044604925E-16,0.,-1.));
#1062 = PCURVE('',#967,#1063);
#1063 = DEFINITIONAL_REPRESENTATION('',(#1064),#1068);
#1064 = CIRCLE('',#1065,36.5);
#1065 = AXIS2_PLACEMENT_2D('',#1066,#1067);
#1066 = CARTESIAN_POINT('',(0.,0.));
#1067 = DIRECTION('',(1.,0.));
#1068 = ( GEOMETRIC_REPRESENTATION_CONTEXT(2) 
PARAMETRIC_REPRESENTATION_CONTEXT() REPRESENTATION_CONTEXT('2D SPACE',''
  ) );
#1069 = PCURVE('',#1070,#1075);
#1070 = CONICAL_SURFACE('',#1071,36.533333333333,3.332099587825E-02);
#1071 = AXIS2_PLACEMENT_3D('',#1072,#1073,#1074);
#1072 = CARTESIAN_POINT('',(-220.,0.,-4.440892098501E-15));
#1073 = DIRECTION('',(-1.,-0.,-2.22044604925E-16));
#1074 = DIRECTION('',(2.22044604925E-16,0.,-1.));
#1075 = DEFINITIONAL_REPRESENTATION('',(#1076),#1080);
#1076 = LINE('',#1077,#1078);
#1077 = CARTESIAN_POINT('',(-0.,-1.));
#1078 = VECTOR('',#1079,1.);
#1079 = DIRECTION('',(-1.,-0.));
#1080 = ( GEOMETRIC_REPRESENTATION_CONTEXT(2) 
PARAMETRIC_REPRESENTATION_CONTEXT() REPRESENTATION_CONTEXT('2D SPACE',''
  ) );
#1081 = ADVANCED_FACE('',(#1082),#1070,.F.);
#1082 = FACE_BOUND('',#1083,.F.);
#1083 = EDGE_LOOP('',(#1084,#1115,#1136,#1137,#1167));
#1084 = ORIENTED_EDGE('',*,*,#1085,.F.);
#1085 = EDGE_CURVE('',#1086,#1088,#1090,.T.);
#1086 = VERTEX_POINT('',#1087);
#1087 = CARTESIAN_POINT('',(-181.,-8.629677777992E-15,-35.23333333333));
#1088 = VERTEX_POINT('',#1089);
#1089 = CARTESIAN_POINT('',(-181.,34.313084643876,-7.999999999999));
#1090 = SURFACE_CURVE('',#1091,(#1096,#1103),.PCURVE_S1.);
#1091 = CIRCLE('',#1092,35.233333333333);
#1092 = AXIS2_PLACEMENT_3D('',#1093,#1094,#1095);
#1093 = CARTESIAN_POINT('',(-181.,0.,4.218847493576E-15));
#1094 = DIRECTION('',(1.,0.,2.22044604925E-16));
#1095 = DIRECTION('',(2.22044604925E-16,0.,-1.));
#1096 = PCURVE('',#1070,#1097);
#1097 = DEFINITIONAL_REPRESENTATION('',(#1098),#1102);
#1098 = LINE('',#1099,#1100);
#1099 = CARTESIAN_POINT('',(-0.,-39.));
#1100 = VECTOR('',#1101,1.);
#1101 = DIRECTION('',(-1.,-0.));
#1102 = ( GEOMETRIC_REPRESENTATION_CONTEXT(2) 
PARAMETRIC_REPRESENTATION_CONTEXT() REPRESENTATION_CONTEXT('2D SPACE',''
  ) );
#1103 = PCURVE('',#1104,#1109);
#1104 = PLANE('',#1105);
#1105 = AXIS2_PLACEMENT_3D('',#1106,#1107,#1108);
#1106 = CARTESIAN_POINT('',(-181.,0.,4.218847493576E-15));
#1107 = DIRECTION('',(1.,0.,2.22044604925E-16));
#1108 = DIRECTION('',(2.22044604925E-16,0.,-1.));
#1109 = DEFINITIONAL_REPRESENTATION('',(#1110),#1114);
#1110 = CIRCLE('',#1111,35.233333333333);
#1111 = AXIS2_PLACEMENT_2D('',#1112,#1113);
#1112 = CARTESIAN_POINT('',(0.,0.));
#1113 = DIRECTION('',(1.,0.));
#1114 = ( GEOMETRIC_REPRESENTATION_CONTEXT(2) 
PARAMETRIC_REPRESENTATION_CONTEXT() REPRESENTATION_CONTEXT('2D SPACE',''
  ) );
#1115 = ORIENTED_EDGE('',*,*,#1116,.F.);
#1116 = EDGE_CURVE('',#1027,#1086,#1117,.T.);
#1117 = SURFACE_CURVE('',#1118,(#1122,#1129),.PCURVE_S1.);
#1118 = LINE('',#1119,#1120);
#1119 = CARTESIAN_POINT('',(-220.,-8.94808594577E-15,-36.53333333333));
#1120 = VECTOR('',#1121,1.);
#1121 = DIRECTION('',(0.999444906979,8.159780041708E-18,
    3.331483023264E-02));
#1122 = PCURVE('',#1070,#1123);
#1123 = DEFINITIONAL_REPRESENTATION('',(#1124),#1128);
#1124 = LINE('',#1125,#1126);
#1125 = CARTESIAN_POINT('',(0.,-0.));
#1126 = VECTOR('',#1127,1.);
#1127 = DIRECTION('',(-0.,-1.));
#1128 = ( GEOMETRIC_REPRESENTATION_CONTEXT(2) 
PARAMETRIC_REPRESENTATION_CONTEXT() REPRESENTATION_CONTEXT('2D SPACE',''
  ) );
#1129 = PCURVE('',#1043,#1130);
#1130 = DEFINITIONAL_REPRESENTATION('',(#1131),#1135);
#1131 = LINE('',#1132,#1133);
#1132 = CARTESIAN_POINT('',(-6.28318530718,0.));
#1133 = VECTOR('',#1134,1.);
#1134 = DIRECTION('',(-0.,-1.));
#1135 = ( GEOMETRIC_REPRESENTATION_CONTEXT(2) 
PARAMETRIC_REPRESENTATION_CONTEXT() REPRESENTATION_CONTEXT('2D SPACE',''
  ) );
#1136 = ORIENTED_EDGE('',*,*,#1055,.T.);
#1137 = ORIENTED_EDGE('',*,*,#1138,.F.);
#1138 = EDGE_CURVE('',#1139,#1025,#1141,.T.);
#1139 = VERTEX_POINT('',#1140);
#1140 = CARTESIAN_POINT('',(-181.,-34.31308464387,-7.999999999999));
#1141 = SURFACE_CURVE('',#1142,(#1147,#1157),.PCURVE_S1.);
#1142 = HYPERBOLA('',#1143,240.,8.);
#1143 = AXIS2_PLACEMENT_3D('',#1144,#1145,#1146);
#1144 = CARTESIAN_POINT('',(875.99999999999,0.,-8.));
#1145 = DIRECTION('',(0.,0.,1.));
#1146 = DIRECTION('',(-1.,0.,0.));
#1147 = PCURVE('',#1070,#1148);
#1148 = DEFINITIONAL_REPRESENTATION('',(#1149),#1156);
#1149 = B_SPLINE_CURVE_WITH_KNOTS('',5,(#1150,#1151,#1152,#1153,#1154,
    #1155),.UNSPECIFIED.,.F.,.F.,(6,6),(2.162552872519,2.198785827482),
  .PIECEWISE_BEZIER_KNOTS.);
#1150 = CARTESIAN_POINT('',(-4.94144439457,-39.));
#1151 = CARTESIAN_POINT('',(-4.93979900021,-31.54041329684));
#1152 = CARTESIAN_POINT('',(-4.938168120943,-24.01144368547));
#1153 = CARTESIAN_POINT('',(-4.936551595318,-16.41227506982));
#1154 = CARTESIAN_POINT('',(-4.934949264082,-8.742076174693));
#1155 = CARTESIAN_POINT('',(-4.933360970166,-1.));
#1156 = ( GEOMETRIC_REPRESENTATION_CONTEXT(2) 
PARAMETRIC_REPRESENTATION_CONTEXT() REPRESENTATION_CONTEXT('2D SPACE',''
  ) );
#1157 = PCURVE('',#1043,#1158);
#1158 = DEFINITIONAL_REPRESENTATION('',(#1159),#1166);
#1159 = B_SPLINE_CURVE_WITH_KNOTS('',5,(#1160,#1161,#1162,#1163,#1164,
    #1165),.UNSPECIFIED.,.F.,.F.,(6,6),(2.162552872519,2.198785827482),
  .PIECEWISE_BEZIER_KNOTS.);
#1160 = CARTESIAN_POINT('',(-4.94144439457,-39.));
#1161 = CARTESIAN_POINT('',(-4.93979900021,-31.54041329684));
#1162 = CARTESIAN_POINT('',(-4.938168120943,-24.01144368547));
#1163 = CARTESIAN_POINT('',(-4.936551595318,-16.41227506982));
#1164 = CARTESIAN_POINT('',(-4.934949264082,-8.742076174693));
#1165 = CARTESIAN_POINT('',(-4.933360970166,-1.));
#1166 = ( GEOMETRIC_REPRESENTATION_CONTEXT(2) 
PARAMETRIC_REPRESENTATION_CONTEXT() REPRESENTATION_CONTEXT('2D SPACE',''
  ) );
#1167 = ORIENTED_EDGE('',*,*,#1168,.F.);
#1168 = EDGE_CURVE('',#1088,#1139,#1169,.T.);
#1169 = SURFACE_CURVE('',#1170,(#1175,#1182),.PCURVE_S1.);
#1170 = CIRCLE('',#1171,35.233333333333);
#1171 = AXIS2_PLACEMENT_3D('',#1172,#1173,#1174);
#1172 = CARTESIAN_POINT('',(-181.,0.,4.218847493576E-15));
#1173 = DIRECTION('',(1.,0.,2.22044604925E-16));
#1174 = DIRECTION('',(2.22044604925E-16,0.,-1.));
#1175 = PCURVE('',#1070,#1176);
#1176 = DEFINITIONAL_REPRESENTATION('',(#1177),#1181);
#1177 = LINE('',#1178,#1179);
#1178 = CARTESIAN_POINT('',(-0.,-39.));
#1179 = VECTOR('',#1180,1.);
#1180 = DIRECTION('',(-1.,-0.));
#1181 = ( GEOMETRIC_REPRESENTATION_CONTEXT(2) 
PARAMETRIC_REPRESENTATION_CONTEXT() REPRESENTATION_CONTEXT('2D SPACE',''
  ) );
#1182 = PCURVE('',#1183,#1188);
#1183 = PLANE('',#1184);
#1184 = AXIS2_PLACEMENT_3D('',#1185,#1186,#1187);
#1185 = CARTESIAN_POINT('',(-181.,0.,4.218847493576E-15));
#1186 = DIRECTION('',(1.,0.,2.22044604925E-16));
#1187 = DIRECTION('',(2.22044604925E-16,0.,-1.));
#1188 = DEFINITIONAL_REPRESENTATION('',(#1189),#1193);
#1189 = CIRCLE('',#1190,35.233333333333);
#1190 = AXIS2_PLACEMENT_2D('',#1191,#1192);
#1191 = CARTESIAN_POINT('',(0.,0.));
#1192 = DIRECTION('',(1.,0.));
#1193 = ( GEOMETRIC_REPRESENTATION_CONTEXT(2) 
PARAMETRIC_REPRESENTATION_CONTEXT() REPRESENTATION_CONTEXT('2D SPACE',''
  ) );
#1194 = ADVANCED_FACE('',(#1195),#1183,.T.);
#1195 = FACE_BOUND('',#1196,.T.);
#1196 = EDGE_LOOP('',(#1197,#1218,#1242,#1261));
#1197 = ORIENTED_EDGE('',*,*,#1198,.T.);
#1198 = EDGE_CURVE('',#1088,#1199,#1201,.T.);
#1199 = VERTEX_POINT('',#1200);
#1200 = CARTESIAN_POINT('',(-181.,35.954060194148,-8.));
#1201 = SURFACE_CURVE('',#1202,(#1206,#1212),.PCURVE_S1.);
#1202 = LINE('',#1203,#1204);
#1203 = CARTESIAN_POINT('',(-181.,-50.,-8.));
#1204 = VECTOR('',#1205,1.);
#1205 = DIRECTION('',(0.,1.,0.));
#1206 = PCURVE('',#1183,#1207);
#1207 = DEFINITIONAL_REPRESENTATION('',(#1208),#1211);
#1208 = B_SPLINE_CURVE_WITH_KNOTS('',1,(#1209,#1210),.UNSPECIFIED.,.F.,
  .F.,(2,2),(79.742898312034,86.833333333333),.PIECEWISE_BEZIER_KNOTS.);
#1209 = CARTESIAN_POINT('',(8.,29.742898312034));
#1210 = CARTESIAN_POINT('',(8.,36.833333333333));
#1211 = ( GEOMETRIC_REPRESENTATION_CONTEXT(2) 
PARAMETRIC_REPRESENTATION_CONTEXT() REPRESENTATION_CONTEXT('2D SPACE',''
  ) );
#1212 = PCURVE('',#1104,#1213);
#1213 = DEFINITIONAL_REPRESENTATION('',(#1214),#1217);
#1214 = B_SPLINE_CURVE_WITH_KNOTS('',1,(#1215,#1216),.UNSPECIFIED.,.F.,
  .F.,(2,2),(79.742898312034,86.833333333333),.PIECEWISE_BEZIER_KNOTS.);
#1215 = CARTESIAN_POINT('',(8.,29.742898312034));
#1216 = CARTESIAN_POINT('',(8.,36.833333333333));
#1217 = ( GEOMETRIC_REPRESENTATION_CONTEXT(2) 
PARAMETRIC_REPRESENTATION_CONTEXT() REPRESENTATION_CONTEXT('2D SPACE',''
  ) );
#1218 = ORIENTED_EDGE('',*,*,#1219,.T.);
#1219 = EDGE_CURVE('',#1199,#1220,#1222,.T.);
#1220 = VERTEX_POINT('',#1221);
#1221 = CARTESIAN_POINT('',(-181.,-35.95406019414,-8.));
#1222 = SURFACE_CURVE('',#1223,(#1228,#1235),.PCURVE_S1.);
#1223 = CIRCLE('',#1224,36.833333333333);
#1224 = AXIS2_PLACEMENT_3D('',#1225,#1226,#1227);
#1225 = CARTESIAN_POINT('',(-181.,0.,4.218847493576E-15));
#1226 = DIRECTION('',(1.,-0.,2.22044604925E-16));
#1227 = DIRECTION('',(2.22044604925E-16,0.,-1.));
#1228 = PCURVE('',#1183,#1229);
#1229 = DEFINITIONAL_REPRESENTATION('',(#1230),#1234);
#1230 = CIRCLE('',#1231,36.833333333333);
#1231 = AXIS2_PLACEMENT_2D('',#1232,#1233);
#1232 = CARTESIAN_POINT('',(0.,0.));
#1233 = DIRECTION('',(1.,0.));
#1234 = ( GEOMETRIC_REPRESENTATION_CONTEXT(2) 
PARAMETRIC_REPRESENTATION_CONTEXT() REPRESENTATION_CONTEXT('2D SPACE',''
  ) );
#1235 = PCURVE('',#979,#1236);
#1236 = DEFINITIONAL_REPRESENTATION('',(#1237),#1241);
#1237 = LINE('',#1238,#1239);
#1238 = CARTESIAN_POINT('',(-0.,-38.));
#1239 = VECTOR('',#1240,1.);
#1240 = DIRECTION('',(-1.,-0.));
#1241 = ( GEOMETRIC_REPRESENTATION_CONTEXT(2) 
PARAMETRIC_REPRESENTATION_CONTEXT() REPRESENTATION_CONTEXT('2D SPACE',''
  ) );
#1242 = ORIENTED_EDGE('',*,*,#1243,.T.);
#1243 = EDGE_CURVE('',#1220,#1139,#1244,.T.);
#1244 = SURFACE_CURVE('',#1245,(#1249,#1255),.PCURVE_S1.);
#1245 = LINE('',#1246,#1247);
#1246 = CARTESIAN_POINT('',(-181.,-50.,-8.));
#1247 = VECTOR('',#1248,1.);
#1248 = DIRECTION('',(0.,1.,0.));
#1249 = PCURVE('',#1183,#1250);
#1250 = DEFINITIONAL_REPRESENTATION('',(#1251),#1254);
#1251 = B_SPLINE_CURVE_WITH_KNOTS('',1,(#1252,#1253),.UNSPECIFIED.,.F.,
  .F.,(2,2),(13.166666666667,20.257101687966),.PIECEWISE_BEZIER_KNOTS.);
#1252 = CARTESIAN_POINT('',(8.,-36.83333333333));
#1253 = CARTESIAN_POINT('',(8.,-29.74289831203));
#1254 = ( GEOMETRIC_REPRESENTATION_CONTEXT(2) 
PARAMETRIC_REPRESENTATION_CONTEXT() REPRESENTATION_CONTEXT('2D SPACE',''
  ) );
#1255 = PCURVE('',#1104,#1256);
#1256 = DEFINITIONAL_REPRESENTATION('',(#1257),#1260);
#1257 = B_SPLINE_CURVE_WITH_KNOTS('',1,(#1258,#1259),.UNSPECIFIED.,.F.,
  .F.,(2,2),(13.166666666667,20.257101687966),.PIECEWISE_BEZIER_KNOTS.);
#1258 = CARTESIAN_POINT('',(8.,-36.83333333333));
#1259 = CARTESIAN_POINT('',(8.,-29.74289831203));
#1260 = ( GEOMETRIC_REPRESENTATION_CONTEXT(2) 
PARAMETRIC_REPRESENTATION_CONTEXT() REPRESENTATION_CONTEXT('2D SPACE',''
  ) );
#1261 = ORIENTED_EDGE('',*,*,#1168,.F.);
#1262 = ADVANCED_FACE('',(#1263),#1104,.T.);
#1263 = FACE_BOUND('',#1264,.T.);
#1264 = EDGE_LOOP('',(#1265,#1266,#1292,#1293,#1294));
#1265 = ORIENTED_EDGE('',*,*,#1243,.F.);
#1266 = ORIENTED_EDGE('',*,*,#1267,.F.);
#1267 = EDGE_CURVE('',#1199,#1220,#1268,.T.);
#1268 = SURFACE_CURVE('',#1269,(#1274,#1285),.PCURVE_S1.);
#1269 = CIRCLE('',#1270,36.833333333333);
#1270 = AXIS2_PLACEMENT_3D('',#1271,#1272,#1273);
#1271 = CARTESIAN_POINT('',(-181.,0.,4.218847493576E-15));
#1272 = DIRECTION('',(-1.,0.,0.));
#1273 = DIRECTION('',(0.,0.976128331063,-0.217194570136));
#1274 = PCURVE('',#1104,#1275);
#1275 = DEFINITIONAL_REPRESENTATION('',(#1276),#1284);
#1276 = ( BOUNDED_CURVE() B_SPLINE_CURVE(2,(#1277,#1278,#1279,#1280,
#1281,#1282,#1283),.UNSPECIFIED.,.T.,.F.) B_SPLINE_CURVE_WITH_KNOTS((1,2
    ,2,2,2,1),(-2.094395102393,0.,2.094395102393,4.188790204786,
6.28318530718,8.377580409573),.UNSPECIFIED.) CURVE() 
GEOMETRIC_REPRESENTATION_ITEM() RATIONAL_B_SPLINE_CURVE((1.,0.5,1.,0.5,
1.,0.5,1.)) REPRESENTATION_ITEM('') );
#1277 = CARTESIAN_POINT('',(8.,35.954060194148));
#1278 = CARTESIAN_POINT('',(70.274258994655,22.097653733597));
#1279 = CARTESIAN_POINT('',(27.137129497327,-24.90523332735));
#1280 = CARTESIAN_POINT('',(-16.,-71.90812038829));
#1281 = CARTESIAN_POINT('',(-35.13712949732,-11.04882686679));
#1282 = CARTESIAN_POINT('',(-54.27425899465,49.810466654699));
#1283 = CARTESIAN_POINT('',(8.,35.954060194148));
#1284 = ( GEOMETRIC_REPRESENTATION_CONTEXT(2) 
PARAMETRIC_REPRESENTATION_CONTEXT() REPRESENTATION_CONTEXT('2D SPACE',''
  ) );
#1285 = PCURVE('',#1010,#1286);
#1286 = DEFINITIONAL_REPRESENTATION('',(#1287),#1291);
#1287 = LINE('',#1288,#1289);
#1288 = CARTESIAN_POINT('',(-7.635042124936,-38.));
#1289 = VECTOR('',#1290,1.);
#1290 = DIRECTION('',(1.,-0.));
#1291 = ( GEOMETRIC_REPRESENTATION_CONTEXT(2) 
PARAMETRIC_REPRESENTATION_CONTEXT() REPRESENTATION_CONTEXT('2D SPACE',''
  ) );
#1292 = ORIENTED_EDGE('',*,*,#1198,.F.);
#1293 = ORIENTED_EDGE('',*,*,#1085,.F.);
#1294 = ORIENTED_EDGE('',*,*,#1295,.F.);
#1295 = EDGE_CURVE('',#1139,#1086,#1296,.T.);
#1296 = SURFACE_CURVE('',#1297,(#1302,#1309),.PCURVE_S1.);
#1297 = CIRCLE('',#1298,35.233333333333);
#1298 = AXIS2_PLACEMENT_3D('',#1299,#1300,#1301);
#1299 = CARTESIAN_POINT('',(-181.,0.,4.218847493576E-15));
#1300 = DIRECTION('',(1.,0.,2.22044604925E-16));
#1301 = DIRECTION('',(2.22044604925E-16,0.,-1.));
#1302 = PCURVE('',#1104,#1303);
#1303 = DEFINITIONAL_REPRESENTATION('',(#1304),#1308);
#1304 = CIRCLE('',#1305,35.233333333333);
#1305 = AXIS2_PLACEMENT_2D('',#1306,#1307);
#1306 = CARTESIAN_POINT('',(0.,0.));
#1307 = DIRECTION('',(1.,0.));
#1308 = ( GEOMETRIC_REPRESENTATION_CONTEXT(2) 
PARAMETRIC_REPRESENTATION_CONTEXT() REPRESENTATION_CONTEXT('2D SPACE',''
  ) );
#1309 = PCURVE('',#1043,#1310);
#1310 = DEFINITIONAL_REPRESENTATION('',(#1311),#1315);
#1311 = LINE('',#1312,#1313);
#1312 = CARTESIAN_POINT('',(-0.,-39.));
#1313 = VECTOR('',#1314,1.);
#1314 = DIRECTION('',(-1.,-0.));
#1315 = ( GEOMETRIC_REPRESENTATION_CONTEXT(2) 
PARAMETRIC_REPRESENTATION_CONTEXT() REPRESENTATION_CONTEXT('2D SPACE',''
  ) );
#1316 = ADVANCED_FACE('',(#1317),#1043,.F.);
#1317 = FACE_BOUND('',#1318,.F.);
#1318 = EDGE_LOOP('',(#1319,#1320,#1321,#1322));
#1319 = ORIENTED_EDGE('',*,*,#1116,.T.);
#1320 = ORIENTED_EDGE('',*,*,#1295,.F.);
#1321 = ORIENTED_EDGE('',*,*,#1138,.T.);
#1322 = ORIENTED_EDGE('',*,*,#1024,.T.);
#1323 = ADVANCED_FACE('',(#1324),#1010,.T.);
#1324 = FACE_BOUND('',#1325,.T.);
#1325 = EDGE_LOOP('',(#1326,#1327,#1355,#1356));
#1326 = ORIENTED_EDGE('',*,*,#991,.F.);
#1327 = ORIENTED_EDGE('',*,*,#1328,.T.);
#1328 = EDGE_CURVE('',#956,#1199,#1329,.T.);
#1329 = SURFACE_CURVE('',#1330,(#1335,#1345),.PCURVE_S1.);
#1330 = HYPERBOLA('',#1331,240.,8.);
#1331 = AXIS2_PLACEMENT_3D('',#1332,#1333,#1334);
#1332 = CARTESIAN_POINT('',(924.,0.,-8.));
#1333 = DIRECTION('',(0.,0.,1.));
#1334 = DIRECTION('',(-1.,0.,0.));
#1335 = PCURVE('',#1010,#1336);
#1336 = DEFINITIONAL_REPRESENTATION('',(#1337),#1344);
#1337 = B_SPLINE_CURVE_WITH_KNOTS('',5,(#1338,#1339,#1340,#1341,#1342,
    #1343),.UNSPECIFIED.,.F.,.F.,(6,6),(-2.242710844915,-2.208101232697)
  ,.PIECEWISE_BEZIER_KNOTS.);
#1338 = CARTESIAN_POINT('',(-7.642433519472,1.590085813666E-12));
#1339 = CARTESIAN_POINT('',(-7.640980097436,-7.735380728963));
#1340 = CARTESIAN_POINT('',(-7.639514380155,-15.40230574449));
#1341 = CARTESIAN_POINT('',(-7.638036235342,-23.00154718241));
#1342 = CARTESIAN_POINT('',(-7.636545528905,-30.53386351392));
#1343 = CARTESIAN_POINT('',(-7.635042124936,-37.99999999999));
#1344 = ( GEOMETRIC_REPRESENTATION_CONTEXT(2) 
PARAMETRIC_REPRESENTATION_CONTEXT() REPRESENTATION_CONTEXT('2D SPACE',''
  ) );
#1345 = PCURVE('',#979,#1346);
#1346 = DEFINITIONAL_REPRESENTATION('',(#1347),#1354);
#1347 = B_SPLINE_CURVE_WITH_KNOTS('',5,(#1348,#1349,#1350,#1351,#1352,
    #1353),.UNSPECIFIED.,.F.,.F.,(6,6),(-2.242710844915,-2.208101232697)
  ,.PIECEWISE_BEZIER_KNOTS.);
#1348 = CARTESIAN_POINT('',(-1.359248212292,1.590085813666E-12));
#1349 = CARTESIAN_POINT('',(-1.357794790257,-7.735380728963));
#1350 = CARTESIAN_POINT('',(-1.356329072976,-15.40230574449));
#1351 = CARTESIAN_POINT('',(-1.354850928162,-23.00154718241));
#1352 = CARTESIAN_POINT('',(-1.353360221726,-30.53386351392));
#1353 = CARTESIAN_POINT('',(-1.351856817756,-37.99999999999));
#1354 = ( GEOMETRIC_REPRESENTATION_CONTEXT(2) 
PARAMETRIC_REPRESENTATION_CONTEXT() REPRESENTATION_CONTEXT('2D SPACE',''
  ) );
#1355 = ORIENTED_EDGE('',*,*,#1267,.T.);
#1356 = ORIENTED_EDGE('',*,*,#1357,.T.);
#1357 = EDGE_CURVE('',#1220,#958,#1358,.T.);
#1358 = SURFACE_CURVE('',#1359,(#1364,#1374),.PCURVE_S1.);
#1359 = HYPERBOLA('',#1360,240.,8.);
#1360 = AXIS2_PLACEMENT_3D('',#1361,#1362,#1363);
#1361 = CARTESIAN_POINT('',(924.,0.,-8.));
#1362 = DIRECTION('',(0.,0.,1.));
#1363 = DIRECTION('',(-1.,0.,0.));
#1364 = PCURVE('',#1010,#1365);
#1365 = DEFINITIONAL_REPRESENTATION('',(#1366),#1373);
#1366 = B_SPLINE_CURVE_WITH_KNOTS('',5,(#1367,#1368,#1369,#1370,#1371,
    #1372),.UNSPECIFIED.,.F.,.F.,(6,6),(2.208101232697,2.242710844915),
  .PIECEWISE_BEZIER_KNOTS.);
#1367 = CARTESIAN_POINT('',(-4.931328489423,-37.99999999999));
#1368 = CARTESIAN_POINT('',(-4.929825085454,-30.53386351392));
#1369 = CARTESIAN_POINT('',(-4.928334379017,-23.00154718241));
#1370 = CARTESIAN_POINT('',(-4.926856234204,-15.40230574449));
#1371 = CARTESIAN_POINT('',(-4.925390516923,-7.735380728963));
#1372 = CARTESIAN_POINT('',(-4.923937094887,1.590085813666E-12));
#1373 = ( GEOMETRIC_REPRESENTATION_CONTEXT(2) 
PARAMETRIC_REPRESENTATION_CONTEXT() REPRESENTATION_CONTEXT('2D SPACE',''
  ) );
#1374 = PCURVE('',#979,#1375);
#1375 = DEFINITIONAL_REPRESENTATION('',(#1376),#1383);
#1376 = B_SPLINE_CURVE_WITH_KNOTS('',5,(#1377,#1378,#1379,#1380,#1381,
    #1382),.UNSPECIFIED.,.F.,.F.,(6,6),(2.208101232697,2.242710844915),
  .PIECEWISE_BEZIER_KNOTS.);
#1377 = CARTESIAN_POINT('',(-4.931328489423,-37.99999999999));
#1378 = CARTESIAN_POINT('',(-4.929825085454,-30.53386351392));
#1379 = CARTESIAN_POINT('',(-4.928334379017,-23.00154718241));
#1380 = CARTESIAN_POINT('',(-4.926856234204,-15.40230574449));
#1381 = CARTESIAN_POINT('',(-4.925390516923,-7.735380728963));
#1382 = CARTESIAN_POINT('',(-4.923937094887,1.590085813666E-12));
#1383 = ( GEOMETRIC_REPRESENTATION_CONTEXT(2) 
PARAMETRIC_REPRESENTATION_CONTEXT() REPRESENTATION_CONTEXT('2D SPACE',''
  ) );
#1384 = ADVANCED_FACE('',(#1385),#979,.T.);
#1385 = FACE_BOUND('',#1386,.T.);
#1386 = EDGE_LOOP('',(#1387,#1388,#1389,#1390));
#1387 = ORIENTED_EDGE('',*,*,#1219,.F.);
#1388 = ORIENTED_EDGE('',*,*,#1328,.F.);
#1389 = ORIENTED_EDGE('',*,*,#955,.T.);
#1390 = ORIENTED_EDGE('',*,*,#1357,.F.);
#1391 = ( GEOMETRIC_REPRESENTATION_CONTEXT(3) 
GLOBAL_UNCERTAINTY_ASSIGNED_CONTEXT((#1395)) 
GLOBAL_UNIT_ASSIGNED_CONTEXT((#1392,#1393,#1394)) REPRESENTATION_CONTEXT
('Context #1','3D Context with UNIT and UNCERTAINTY') );
#1392 = ( LENGTH_UNIT() NAMED_UNIT(*) SI_UNIT(.MILLI.,.METRE.) );
#1393 = ( NAMED_UNIT(*) PLANE_ANGLE_UNIT() SI_UNIT($,.RADIAN.) );
#1394 = ( NAMED_UNIT(*) SI_UNIT($,.STERADIAN.) SOLID_ANGLE_UNIT() );
#1395 = UNCERTAINTY_MEASURE_WITH_UNIT(LENGTH_MEASURE(5.E-07),#1392,
  'distance_accuracy_value','confusion accuracy');
#1396 = PRODUCT_RELATED_PRODUCT_CATEGORY('part',$,(#7));
ENDSEC;
END-ISO-10303-21;
